<?xml version="1.0" encoding="utf-8"?>
<!-- Generator: Adobe Illustrator 16.0.0, SVG Export Plug-In . SVG Version: 6.00 Build 0)  -->
<!DOCTYPE svg PUBLIC "-//W3C//DTD SVG 1.1//EN" "http://www.w3.org/Graphics/SVG/1.1/DTD/svg11.dtd">
<svg version="1.1" id="Ebene1" xmlns="http://www.w3.org/2000/svg" xmlns:xlink="http://www.w3.org/1999/xlink" x="0px" y="0px"
	 width="241.333px" height="244.225px" viewBox="0 0 241.333 244.225" enable-background="new 0 0 241.333 244.225"
	 xml:space="preserve">
<g>
	<path fill="#808080" d="M43.467,225.914c0-2.13-0.754-3.791-2.262-4.98c-1.508-1.189-4.157-2.421-7.948-3.694
		c-3.791-1.272-6.89-2.504-9.297-3.694c-7.831-3.846-11.746-9.131-11.746-15.854c0-3.348,0.976-6.301,2.926-8.861
		c1.951-2.559,4.711-4.551,8.28-5.977c3.569-1.425,7.581-2.138,12.036-2.138c4.344,0,8.238,0.775,11.684,2.324
		c3.444,1.55,6.122,3.756,8.031,6.62c1.909,2.863,2.864,6.136,2.864,9.815H43.508c0-2.462-0.754-4.372-2.262-5.728
		c-1.509-1.355-3.549-2.034-6.122-2.034c-2.601,0-4.656,0.575-6.163,1.722c-1.509,1.149-2.262,2.608-2.262,4.379
		c0,1.55,0.83,2.954,2.49,4.213c1.66,1.259,4.579,2.56,8.757,3.901c4.178,1.342,7.609,2.788,10.293,4.337
		c6.53,3.763,9.795,8.951,9.795,15.564c0,5.285-1.992,9.436-5.977,12.451c-3.984,3.016-9.449,4.524-16.394,4.524
		c-4.897,0-9.332-0.878-13.302-2.636c-3.971-1.756-6.959-4.164-8.965-7.222c-2.006-3.057-3.009-6.578-3.009-10.563h14.609
		c0,3.237,0.836,5.624,2.511,7.159c1.674,1.536,4.393,2.304,8.156,2.304c2.407,0,4.309-0.519,5.707-1.557
		C42.768,229.255,43.467,227.795,43.467,225.914z"/>
	<path fill="#808080" d="M115.974,241.976h-14.485l-21.416-37.603v37.603H65.505v-60.43h14.568l21.375,37.603v-37.603h14.526
		V241.976z"/>
	<path fill="#808080" d="M160.259,230.687h-19.963l-3.486,11.289h-15.564l22.163-60.43h13.696l22.329,60.43h-15.647L160.259,230.687
		z M143.782,219.439h12.991l-6.516-20.959L143.782,219.439z"/>
	<path fill="#808080" d="M198.401,221.473v20.503h-14.568v-60.43h24.114c4.621,0,8.708,0.851,12.264,2.553
		c3.555,1.701,6.309,4.123,8.26,7.263c1.95,3.141,2.926,6.703,2.926,10.688c0,5.894-2.11,10.604-6.329,14.132
		c-4.22,3.528-10.01,5.292-17.37,5.292H198.401z M198.401,210.225h9.546c2.822,0,4.973-0.706,6.454-2.117
		c1.48-1.411,2.221-3.403,2.221-5.977c0-2.822-0.761-5.077-2.283-6.765c-1.522-1.688-3.597-2.545-6.226-2.573h-9.712V210.225z"/>
</g>
<g>
	<path fill="#55D6BA" stroke="#FFFFFF" stroke-miterlimit="10" d="M229.809,175.392c7.279-16,11.354-33.013,11.354-51.25
		c0-66.274-53.726-120.125-120-120.125s-120,53.913-120,120.188c0,18.237,4.074,35.188,11.353,51.188H229.809z"/>
	<path fill="none" stroke="#FFFFFF" stroke-width="2" stroke-miterlimit="10" d="M224.534,176.892
		c8.073-16,12.628-33.918,12.628-52.888c0-64.065-51.935-116.102-116-116.102s-116,52.088-116,116.153
		c0,18.97,4.74,36.837,12.813,52.837"/>
	<path fill="#FFFFFF" d="M190.67,106.584c0.059-0.121,0.117-0.249,0.174-0.387c0.447-1.054,0.713-2.24,0.886-3.473
		c0.597-3.488,0.767-7.574,0.767-7.574c0.828-3.976,2.531-8.355,1.861-12.628c-0.403-2.563-3.423-8.731-5.748-6.885
		c-3.646,2.895-5.176-0.102-5.176,4.471c0,4.572-23.186,9.843-30.602,8.112c-6.6-1.539-10.324-4.86-12.296-7.391
		c0.138-0.983,0.214-1.987,0.214-3.008c0-11.927-9.669-21.597-21.597-21.597s-21.596,9.67-21.596,21.597
		c0,4.564,1.419,8.796,3.836,12.283c-0.396,0.271-0.787,0.553-1.182,0.835l-5.868-2.404l0.85,6.268
		c-0.395,0.319-0.79,0.642-1.185,0.964l-5.519-2.149l0.906,5.903c-0.559,0.446-1.117,0.888-1.68,1.321l-4.977-2.796l0.072,6.304
		c-0.406,0.263-0.816,0.513-1.228,0.762l-4.741-3.409l-0.609,6.095c-0.575,0.225-1.137,0.441-1.705,0.662l-4.848-3.97l-1.015,6.187
		c-0.566,0.207-1.134,0.415-1.69,0.612l-4.568-4.186l-1.361,6.132c-0.658,0.196-1.306,0.378-1.951,0.556l-3.561-3.69l-1.408,4.901
		c-0.699,0.145-1.398,0.289-2.078,0.407c-0.273,0.048-0.533,0.077-0.801,0.12l-2.606-3.544l-1.784,4.066
		c-1.601,0.115-3.129,0.148-4.572,0.118c-2.93-0.108-5.515-0.482-7.659-0.98c-2.14-0.503-3.852-1.052-5.009-1.483
		c-1.176-0.437-1.803-0.669-1.803-0.669s0.482,0.88,1.43,2.43c0.961,1.55,2.397,3.713,4.35,6.166c0.971,1.238,2.08,2.493,3.31,3.793
		c1.228,1.328,2.589,2.61,4.07,3.868c2.955,2.581,6.409,4.929,10.243,6.86c3.832,1.947,8.041,3.438,12.48,4.449
		c4.283,0.995,8.781,1.553,13.367,1.799l0.162,1.626c-0.641-0.743-0.954-0.661-1.443,0.305c-1.037,2.044-1.939,4.13-1.816,6.502
		c-0.074,0.625-0.216,1.248-0.213,1.871c0.008,2.029,0.238,2.372,2.221,2.719c2.611,0.457,5.244,0.791,7.867,1.178
		c0.446,0.038,0.893,0.078,1.338,0.116c5.663,0.479,11.315,1.289,17.019,0.83c2.619-0.211,5.226-0.589,7.832-0.935
		c0.415-0.057,0.922-0.248,1.172-0.552c0.743-0.909,0.216-3.328-0.797-4.009c-0.469-0.235-0.925-0.638-1.408-0.673
		c-1.715-0.129-3.439-0.134-5.16-0.184c-2.731-1.336-5.463-2.672-8.193-4.008c-0.141-0.085-0.28-0.17-0.42-0.254
		c-2.266-0.979-4.529-1.959-6.795-2.939c-0.331-0.112-0.592-0.098-0.815-0.019l0.054-1.359c1.448-0.018,2.897-0.046,4.346-0.093
		c4.986-0.163,9.973-0.476,14.95-0.786c5.958-0.371,11.788-1.74,17.679-2.636l1.387,1.79c-0.004-0.002-0.01-0.005-0.012-0.008
		c-0.699-0.564-0.936-0.477-1.164,0.392c-0.461,1.738-0.813,3.488-0.328,5.287c0.045,0.491,0.039,0.993,0.144,1.471
		c0.338,1.556,0.571,1.781,2.149,1.722c2.078-0.078,4.154-0.253,6.23-0.386c0.348-0.044,0.697-0.086,1.045-0.13
		c4.424-0.561,8.894-0.866,13.195-2.154c1.976-0.592,3.913-1.309,5.857-2.001c0.31-0.111,0.665-0.341,0.808-0.617
		c0.422-0.819-0.38-2.588-1.268-2.943c-0.399-0.104-0.814-0.338-1.191-0.287c-1.338,0.183-2.661,0.461-3.99,0.704
		c-2.314-0.577-4.63-1.154-6.944-1.731c-0.121-0.042-0.243-0.084-0.364-0.127c-1.898-0.379-3.798-0.761-5.695-1.141
		c-0.219-0.024-0.39,0.001-0.532,0.063l-0.698-0.689c7.398-0.152,14.791,1.028,22.18,1.246c5.176,0.153,12.75,1.809,17.815,0.511
		c2.626-0.674,17.56-5.496,18.216-8.727c0.137-0.68-1.225-1.41-3.608-2.165l-0.884-2.804l-0.895-2.836l-2.01,2.192l-1.832,1.999
		c-1.467-0.324-3.064-0.649-4.756-0.975l-0.904-2.571l-0.985-2.806l-1.938,2.256l-1.8,2.097c-1.441-0.25-2.918-0.498-4.414-0.743
		l-0.972-2.472l-1.089-2.767l-1.853,2.326l-1.617,2.028c-1.334-0.208-2.668-0.414-3.992-0.616l-0.979-2.587l-1.053-2.781
		l-1.883,2.303l-1.798,2.199c-1.665-0.25-3.285-0.493-4.835-0.727l-1.018-2.566l-1.099-2.764l-1.845,2.331l-1.685,2.131
		c-4.63-0.729-8.001-1.325-9.051-1.728c-0.902-0.346-6.48-3.803-7.333-4.459c0.045-0.014,0.089-0.027,0.134-0.042
		c1.133-0.174,2.83-0.329,4.908-0.467c0.827-0.044,1.92-0.108,3.17-0.186c1.146-0.059,2.361-0.114,3.624-0.166l1.518,2.363
		l1.606,2.504l1.364-2.643l1.256-2.431c1.367-0.042,2.754-0.082,4.139-0.119l1.411,2.235l1.588,2.515l1.384-2.633l1.184-2.25
		c1.619-0.035,3.193-0.065,4.691-0.092l1.209,2.233l1.417,2.615l1.557-2.535l1.478-2.406c1.609-0.024,2.992-0.041,4.063-0.054
		c0.309-0.004,0.617-0.004,0.926-0.01c0.967-0.011,1.512-0.016,1.512-0.016s0.084,0.001,0.231,0h-0.007l-2.97,0.158l1.62,2.493
		l1.621,2.494l1.35-2.65l1.32-2.593c1.281-0.073,2.854-0.199,4.536-0.418l1.886,2.263l1.902,2.286l1.027-2.79l1.027-2.792
		l-0.609,0.106c2.449-0.624,4.734-1.567,6.564-3.042C189.723,108.18,190.26,107.43,190.67,106.584z M89.326,152.728
		c-0.002,0.003-0.006,0.007-0.008,0.01c-0.133-0.016-0.266-0.033-0.4-0.05L89.326,152.728z M136.62,145.497
		c0,0.002-0.002,0.006-0.004,0.008c-0.104,0.011-0.21,0.02-0.314,0.028L136.62,145.497z"/>
</g>
</svg>
