<?xml version="1.0" encoding="utf-8"?>
<!-- Generator: Adobe Illustrator 16.0.0, SVG Export Plug-In . SVG Version: 6.00 Build 0)  -->
<!DOCTYPE svg PUBLIC "-//W3C//DTD SVG 1.1//EN" "http://www.w3.org/Graphics/SVG/1.1/DTD/svg11.dtd">
<svg version="1.1" id="Ebene1" xmlns="http://www.w3.org/2000/svg" xmlns:xlink="http://www.w3.org/1999/xlink" x="0px" y="0px"
	 width="316.5px" height="228px" viewBox="0 0 316.5 228" enable-background="new 0 0 316.5 228" xml:space="preserve">
<polygon fill="#E0E0DA" points="149.773,176.146 147.666,172.861 145.559,169.58 149.455,169.396 153.354,169.213 151.563,172.68 
	"/>
<polygon fill="#E0E0DA" points="162.574,175.564 160.492,172.266 158.408,168.967 162.307,168.811 166.207,168.658 164.391,172.111 
	"/>
<polygon fill="#E0E0DA" points="175.543,175.398 173.684,171.969 171.826,168.537 175.727,168.643 179.627,168.75 177.586,172.074 
	"/>
<polygon fill="#E0E0DA" points="188.703,175.561 186.576,172.289 184.449,169.02 188.346,168.813 192.242,168.607 190.473,172.084 
	"/>
<polygon fill="#E0E0DA" points="203.127,174.102 200.629,171.102 198.133,168.105 201.979,167.441 205.822,166.777 204.475,170.439 
	"/>
<polygon fill="#E0E0DA" points="149.773,176.146 147.666,172.861 145.559,169.58 149.455,169.396 153.354,169.213 151.563,172.68 
	"/>
<polygon fill="#E0E0DA" points="162.574,175.564 160.492,172.266 158.408,168.967 162.307,168.811 166.207,168.658 164.391,172.111 
	"/>
<polygon fill="#E0E0DA" points="175.543,175.398 173.684,171.969 171.826,168.537 175.727,168.643 179.627,168.75 177.586,172.074 
	"/>
<polygon fill="#E0E0DA" points="188.703,175.561 186.576,172.289 184.449,169.02 188.346,168.813 192.242,168.607 190.473,172.084 
	"/>
<polygon fill="#E0E0DA" points="203.127,174.102 200.629,171.102 198.133,168.105 201.979,167.441 205.822,166.777 204.475,170.439 
	"/>
<polygon fill="#E0E0DA" points="209.83,182.303 211.006,186.023 212.18,189.744 208.369,188.9 204.559,188.057 207.195,185.178 "/>
<polygon fill="#E0E0DA" points="196.072,179.469 197.367,183.15 198.66,186.83 194.824,186.109 190.99,185.389 193.531,182.428 "/>
<polygon fill="#E0E0DA" points="182.678,177.33 184.105,180.961 185.531,184.592 181.674,184.014 177.814,183.432 180.246,180.381 
	"/>
<polygon fill="#E0E0DA" points="170.219,175.191 171.602,178.84 172.982,182.488 169.131,181.861 165.281,181.232 167.75,178.213 
	"/>
<polygon fill="#E0E0DA" points="156.271,173.152 157.711,176.779 159.15,180.402 155.291,179.84 151.43,179.273 153.852,176.211 "/>
<path fill="#FFFFFF" d="M156.551,79.48"/>
<path fill="#5CBFA3" d="M134.676,170.297c0.873,0.105,24.543-1.533,26.389-1.609c9.461-0.396,18.928,0.535,28.4,0.021
	c7.621-0.414,17.92-0.742,24.17-5.783c4.73-3.82,3.486-12.545,4.598-17.869c1.086-5.215,3.322-10.961,2.441-16.566
	c-0.527-3.363-4.49-11.455-7.539-9.033c-4.787,3.797-6.791-0.135-6.791,5.865c0,5.998-30.42,12.912-40.15,10.643
	c-8.658-2.02-13.545-6.375-16.131-9.695c0.182-1.291,0.281-2.607,0.281-3.947c0-15.648-12.686-28.334-28.334-28.334
	s-28.334,12.686-28.334,28.334c0,5.988,1.863,11.539,5.035,16.115c-10.955,7.5-21.043,18.521-32.938,23.184
	c-5.874,2.301-11.487,4.445-16.805,6.176c-5.317,1.727-10.337,3.029-14.998,3.838c-4.661,0.82-8.959,1.076-12.81,0.996
	c-3.843-0.143-7.234-0.633-10.047-1.287c-2.807-0.66-5.055-1.381-6.572-1.945c-1.543-0.572-2.365-0.877-2.365-0.877
	s0.634,1.154,1.877,3.188c1.26,2.033,3.145,4.871,5.704,8.088c1.276,1.625,2.729,3.271,4.344,4.977
	c1.609,1.742,3.396,3.424,5.339,5.074c3.878,3.387,8.41,6.467,13.439,9.002c5.027,2.553,10.551,4.51,16.373,5.836
	c5.824,1.354,11.947,2.096,18.191,2.398c6.315,0.348,12.638,0.326,18.958,0.121c6.543-0.213,13.084-0.623,19.613-1.029
	c10.756-0.67,21.191-3.826,31.953-4.418c10.561-0.58,21.111,1.252,31.66,1.563c6.791,0.201,16.727,2.373,23.373,0.67
	c3.443-0.883,23.037-7.209,23.896-11.447c1.104-5.443-70.744-13.352-77.131-15.803c-1.197-0.459-8.678-5.098-9.668-5.883
	C131.543,170.145,133.115,170.109,134.676,170.297z"/>
<polygon fill="#6AD3B3" points="25.843,175.48 29.501,167.141 34.895,174.479 "/>
<polygon fill="#6AD3B3" points="36.03,173.424 38.546,164.67 44.868,171.227 "/>
<polygon fill="#6AD3B3" points="55.63,166.295 57.104,157.309 64.151,163.08 "/>
<polygon fill="#6AD3B3" points="65.594,162.715 66.501,153.654 73.896,158.971 "/>
<polygon fill="#6AD3B3" points="74.342,157.961 74.238,148.855 82.178,153.318 "/>
<polygon fill="#6AD3B3" points="83.162,152.047 81.781,143.047 90.268,146.352 "/>
<polygon fill="#6AD3B3" points="90.684,145.402 89.461,136.379 97.889,139.83 "/>
<polygon fill="#6AD3B3" points="45.59,169.627 47.563,160.738 54.276,166.891 "/>
<path fill-rule="evenodd" clip-rule="evenodd" fill="#5A4739" d="M54.556,209.568c-0.053-0.078-0.105-0.154-0.159-0.23
	C54.45,209.414,54.503,209.49,54.556,209.568z"/>
<polygon fill-rule="evenodd" clip-rule="evenodd" fill="#5CBFA3" points="66.718,206.314 67.218,211.314 74.885,214.314 
	80.549,211.197 80.885,202.648 "/>
<g>
	<path fill-rule="evenodd" clip-rule="evenodd" fill="#F1E6D4" d="M110.531,219.709c1.33,0.893,2.023,4.066,1.047,5.258
		c-0.328,0.398-0.992,0.65-1.537,0.725c-3.42,0.453-6.84,0.949-10.275,1.227c-7.482,0.602-14.898-0.459-22.328-1.088
		c-0.584-0.051-1.17-0.104-1.754-0.152c-3.444-0.508-6.897-0.947-10.323-1.547c-2.6-0.455-2.902-0.904-2.913-3.566
		c-0.004-0.816,0.181-1.635,0.28-2.455c5.971,0.742,11.942,1.484,17.913,2.227c0.15,0.031,0.303,0.061,0.455,0.092
		c0.414,0.039,0.832,0.078,1.248,0.115c0.174,0.023,0.35,0.045,0.523,0.066c5.285,0.607,10.574,1.49,15.898,0.943
		C102.711,221.148,106.611,220.34,110.531,219.709z"/>
	<path fill-rule="evenodd" clip-rule="evenodd" fill="#C84A5C" d="M80.641,220.336c0.15,0.031,0.303,0.061,0.455,0.092
		C80.943,220.396,80.791,220.367,80.641,220.336z"/>
	<path fill-rule="evenodd" clip-rule="evenodd" fill="#C9302C" d="M108.686,218.824c-2.25-0.168-4.512-0.174-6.77-0.24
		c-3.584-1.754-7.168-3.506-10.75-5.26c-0.184-0.111-0.367-0.223-0.551-0.334c-2.973-1.285-5.943-2.57-8.916-3.855
		c-1.344-0.453-1.857,0.563-2.473,1.4c0.441,0.223,0.873,0.461,1.322,0.662c-0.449-0.201-0.881-0.439-1.322-0.662
		c-0.824,0.438-1.65,0.873-2.475,1.311c-1.158,0.271-2.311,0.725-3.481,0.775c-2.631,0.115-4.529-1.316-6.122-3.275
		c-0.946-1.166-1.361-1.105-2.04,0.234c-1.36,2.682-2.545,5.418-2.382,8.529c5.971,0.742,11.942,1.484,17.913,2.227
		c0.15,0.031,0.303,0.061,0.455,0.092c0.414,0.039,0.832,0.078,1.248,0.115l0.533,0.053c-0.002,0.004-0.006,0.01-0.01,0.014
		c5.285,0.607,10.574,1.49,15.898,0.943c3.945-0.404,7.846-1.213,11.766-1.844C109.918,219.4,109.318,218.871,108.686,218.824z"/>
</g>
<polyline fill-rule="evenodd" clip-rule="evenodd" fill="#5CBFA3" points="128.811,202.205 133.498,208.254 141.861,204.232 
	141.617,202.758 132.361,193.633 "/>
<g>
	<path fill-rule="evenodd" clip-rule="evenodd" fill="#F1E6D4" d="M166,205.895c1.166,0.467,2.219,2.787,1.666,3.861
		c-0.188,0.361-0.656,0.664-1.061,0.809c-2.551,0.91-5.094,1.85-7.686,2.627c-5.643,1.689-11.506,2.09-17.311,2.824
		c-0.457,0.059-0.914,0.113-1.371,0.172c-2.725,0.174-5.447,0.404-8.174,0.506c-2.07,0.078-2.377-0.219-2.82-2.26
		c-0.137-0.627-0.129-1.285-0.188-1.93c4.703-0.41,9.406-0.818,14.109-1.229c0.121,0,0.242-0.002,0.363-0.004
		c0.326-0.037,0.652-0.076,0.977-0.115c0.139-0.012,0.277-0.023,0.414-0.037c4.154-0.398,8.357-0.588,12.354-1.883
		C160.234,208.281,163.096,207.02,166,205.895z"/>
	<path fill-rule="evenodd" clip-rule="evenodd" fill="#C84A5C" d="M143.166,211.275c0.121,0,0.242-0.002,0.363-0.004
		C143.408,211.273,143.287,211.275,143.166,211.275z"/>
	<path fill-rule="evenodd" clip-rule="evenodd" fill="#C9302C" d="M164.438,205.52c-1.754,0.238-3.49,0.604-5.232,0.922
		c-3.037-0.756-6.076-1.514-9.111-2.271c-0.16-0.055-0.318-0.109-0.479-0.166c-2.49-0.498-4.982-0.998-7.473-1.498
		c-1.105-0.127-1.332,0.736-1.668,1.48c0.373,0.1,0.746,0.211,1.123,0.293c-0.377-0.082-0.75-0.193-1.123-0.293
		c-0.563,0.471-1.123,0.941-1.684,1.412c-0.846,0.398-1.656,0.936-2.543,1.166c-2.002,0.52-3.693-0.268-5.236-1.51
		c-0.916-0.74-1.225-0.625-1.527,0.514c-0.604,2.279-1.064,4.576-0.428,6.936c4.703-0.41,9.406-0.818,14.109-1.229
		c0.121,0,0.242-0.002,0.363-0.004c0.326-0.037,0.652-0.076,0.977-0.115l0.42-0.047c-0.002,0.002-0.004,0.008-0.006,0.01
		c4.154-0.398,8.357-0.588,12.354-1.883c2.961-0.955,5.822-2.217,8.727-3.342C165.479,205.758,164.934,205.451,164.438,205.52z"/>
</g>
<path fill="#6AD3B3" d="M218.232,145.057c1.086-5.215,3.322-10.961,2.441-16.566c-0.527-3.363-4.49-11.455-7.539-9.033
	c-4.787,3.797-6.791-0.135-6.791,5.865c0,5.998-30.42,12.912-40.15,10.643c-8.658-2.02-13.545-6.375-16.131-9.695
	c0.182-1.291,0.281-2.607,0.281-3.947c0-15.648-12.686-28.334-28.334-28.334s-28.334,12.686-28.334,28.334
	c0,5.988,1.863,11.539,5.035,16.115c-10.955,7.5-21.043,18.521-32.938,23.184c-5.874,2.301-11.487,4.445-16.805,6.176
	c-5.317,1.727-10.337,3.029-14.998,3.838c-4.661,0.82-8.959,1.076-12.81,0.996c-3.843-0.143-7.234-0.633-10.047-1.287
	c-2.807-0.66-5.055-1.381-6.572-1.945c-1.543-0.572-2.365-0.877-2.365-0.877s28.395,34.314,128.146,2.314
	c10.479-1.605,57.73-2.023,57.73-2.023s22.373,0.168,27.166-7.832C217.678,158.48,218.232,145.057,218.232,145.057z"/>
<circle fill="#FFFFFF" cx="122.552" cy="123.48" r="24.333"/>
<path fill="#808080" d="M140.551,123.48c0,9.574-7.76,17.334-17.332,17.334s-17.334-7.76-17.334-17.334
	c0-9.572,7.762-17.332,17.334-17.332v17.332H140.551z"/>
<g>
	<path fill="#E0E0DA" d="M67.785,193.402c0,0,0.408-0.502,1.125-1.383c0.367-0.432,0.813-0.957,1.326-1.561
		c0.533-0.584,1.105-1.273,1.822-1.943c0.684-0.701,1.497-1.395,2.377-2.102c0.465-0.326,0.932-0.676,1.43-1.008
		c0.529-0.283,1.07-0.576,1.619-0.871c0.6-0.221,1.207-0.443,1.822-0.67c0.305-0.068,0.611-0.137,0.92-0.207l1.025-0.105
		c1.352-0.063,2.729,0.209,3.98,0.75c2.512,1.098,4.459,3.23,5.434,5.561c0.25,0.598,0.43,1.139,0.586,1.801
		c0.061,0.588,0.186,1.131,0.189,1.715c-0.016,1.203-0.227,2.299-0.674,3.203c-0.107,0.227-0.211,0.449-0.313,0.666
		c-0.119,0.207-0.254,0.396-0.383,0.584c-0.25,0.381-0.498,0.727-0.775,1.018c-0.51,0.619-1.02,1.088-1.43,1.482
		c-0.408,0.396-0.77,0.662-0.998,0.863c-0.232,0.195-0.355,0.301-0.355,0.301s0.451-0.467,1.215-1.301
		c0.371-0.426,0.834-0.932,1.275-1.574c0.244-0.305,0.453-0.66,0.66-1.041c0.102-0.189,0.225-0.375,0.326-0.576
		c0.084-0.207,0.17-0.422,0.258-0.639c0.377-0.861,0.496-1.889,0.469-2.902c-0.027-0.523-0.186-1.102-0.275-1.672
		c-0.084-0.254-0.168-0.512-0.254-0.773c-0.092-0.27-0.219-0.529-0.328-0.799c-0.967-2.105-2.76-4.031-5.023-5
		c-1.119-0.494-2.346-0.748-3.545-0.701l-0.867,0.074c-0.311,0.063-0.619,0.123-0.926,0.184c-0.561,0.189-1.115,0.379-1.662,0.564
		c-0.527,0.262-1.047,0.518-1.555,0.77c-0.49,0.291-0.955,0.604-1.418,0.891c-0.887,0.639-1.715,1.271-2.422,1.926
		c-0.73,0.627-1.357,1.256-1.938,1.789c-0.561,0.555-1.049,1.037-1.451,1.436C68.246,192.947,67.785,193.402,67.785,193.402z"/>
</g>
<g>
	<path fill="#E0E0DA" d="M127.434,201.734c0,0-0.395-0.283-1.082-0.779c-0.678-0.51-1.682-1.191-2.807-2.127
		c-0.561-0.467-1.166-0.986-1.764-1.586c-0.611-0.586-1.201-1.275-1.736-2.051c-0.502-0.791-1.006-1.658-1.248-2.646
		c-0.168-0.48-0.199-0.994-0.281-1.5c-0.008-0.51-0.047-1.031,0.025-1.537s0.133-1.018,0.295-1.496l0.209-0.725l0.301-0.695
		c0.408-0.889,1.141-1.85,2.115-2.219c0.973-0.408,1.98-0.307,2.82-0.104c0.857,0.199,1.586,0.561,2.248,0.891
		c1.307,0.697,2.258,1.471,2.934,1.982c0.666,0.529,1.027,0.854,1.027,0.854s-0.414-0.252-1.139-0.693
		c-0.719-0.445-1.771-1.045-3.068-1.635c-0.654-0.273-1.373-0.564-2.152-0.686c-0.771-0.131-1.602-0.125-2.314,0.197l-0.502,0.303
		l-0.43,0.424c-0.148,0.139-0.225,0.334-0.344,0.494l-0.172,0.252l-0.139,0.328l-0.264,0.621l-0.18,0.664
		c-0.148,0.439-0.188,0.895-0.252,1.346c-0.072,0.451-0.037,0.906-0.041,1.357c0.072,0.443,0.086,0.898,0.234,1.324
		c0.205,0.869,0.611,1.674,1.055,2.422c0.479,0.729,0.975,1.426,1.527,2.029c0.533,0.619,1.088,1.168,1.607,1.666
		c1.059,0.992,1.939,1.818,2.557,2.396C127.092,201.389,127.434,201.734,127.434,201.734z"/>
</g>
<line fill="none" stroke="#808080" stroke-width="2" stroke-miterlimit="10" x1="215.564" y1="108.007" x2="234.936" y2="81.293"/>
<g>
	<path fill="#C9302C" d="M178.523,22.368l9.543,6.927l-1.576,2.172l-12.213-8.864l14.617-20.137l2.669,1.938L178.523,22.368z"/>
	<path fill="#C9302C" d="M193.971,25.262c1.064-1.467,2.31-2.575,3.736-3.329c1.426-0.752,2.884-1.073,4.374-0.964
		c1.489,0.111,2.894,0.644,4.212,1.602c2.038,1.479,3.174,3.381,3.409,5.704c0.234,2.325-0.498,4.658-2.198,7l-0.13,0.18
		c-1.058,1.457-2.286,2.562-3.684,3.313c-1.397,0.753-2.85,1.075-4.354,0.968c-1.507-0.107-2.933-0.65-4.278-1.627
		c-2.028-1.473-3.16-3.37-3.395-5.695c-0.235-2.323,0.491-4.648,2.177-6.972L193.971,25.262z M196.323,27.433
		c-1.204,1.66-1.788,3.272-1.746,4.836c0.04,1.564,0.704,2.814,1.996,3.752c1.3,0.943,2.702,1.183,4.207,0.72
		c1.505-0.464,2.923-1.613,4.255-3.447c1.191-1.642,1.768-3.255,1.729-4.838c-0.04-1.585-0.705-2.846-1.996-3.782
		c-1.264-0.918-2.646-1.154-4.15-0.712C199.113,24.404,197.682,25.562,196.323,27.433z"/>
	<path fill="#C9302C" d="M216.866,47.455c0.502-0.692,0.631-1.418,0.388-2.179s-0.912-1.749-2.007-2.966
		c-1.095-1.218-1.882-2.296-2.361-3.235c-0.479-0.938-0.707-1.809-0.684-2.607c0.023-0.8,0.304-1.567,0.84-2.306
		c0.89-1.226,2.16-1.887,3.814-1.982c1.652-0.095,3.286,0.442,4.899,1.614c1.696,1.23,2.755,2.668,3.175,4.311
		c0.42,1.642,0.135,3.146-0.855,4.51l-2.573-1.867c0.509-0.7,0.65-1.521,0.424-2.459c-0.228-0.939-0.792-1.736-1.695-2.393
		c-0.932-0.676-1.808-1.001-2.627-0.978c-0.82,0.024-1.468,0.364-1.943,1.02c-0.447,0.617-0.543,1.26-0.28,1.928
		c0.261,0.669,0.926,1.608,1.996,2.821c1.069,1.213,1.855,2.305,2.361,3.278c0.505,0.971,0.747,1.875,0.725,2.711
		c-0.022,0.835-0.325,1.653-0.907,2.456c-0.971,1.337-2.282,2.021-3.938,2.051c-1.655,0.031-3.335-0.573-5.041-1.811
		c-1.198-0.871-2.104-1.854-2.719-2.945c-0.615-1.094-0.906-2.21-0.875-3.349s0.368-2.151,1.011-3.036l2.559,1.857
		c-0.577,0.892-0.727,1.82-0.45,2.788c0.275,0.968,0.939,1.833,1.99,2.597c0.969,0.702,1.888,1.07,2.758,1.104
		C215.718,48.42,216.391,48.109,216.866,47.455z"/>
	<path fill="#C9302C" d="M231.802,52.742c1.693-2.332,3.579-3.797,5.659-4.393c2.079-0.596,4.009-0.247,5.788,1.044
		c1.825,1.325,2.782,3.006,2.868,5.039l1.33-1.569l2.337,1.696l-10.602,14.605c-1.405,1.936-3.087,3.046-5.045,3.328
		c-1.957,0.282-3.904-0.279-5.841-1.686c-1.078-0.782-1.967-1.779-2.665-2.99s-1.028-2.413-0.989-3.611l2.441-0.571
		c0.113,2.152,0.963,3.803,2.55,4.954c1.244,0.903,2.469,1.258,3.674,1.063c1.204-0.195,2.269-0.929,3.192-2.201l0.934-1.287
		c-1.881,0.438-3.705,0.014-5.476-1.271c-1.752-1.272-2.658-3.006-2.717-5.204C229.181,57.492,230.035,55.177,231.802,52.742z
		 M234.164,54.899c-1.226,1.688-1.842,3.264-1.849,4.73c-0.009,1.464,0.61,2.648,1.854,3.552c1.614,1.171,3.33,1.299,5.151,0.382
		l4.959-6.832c0.253-1.998-0.403-3.566-1.971-4.704c-1.245-0.904-2.569-1.126-3.973-0.666C236.934,51.82,235.543,53,234.164,54.899z
		"/>
	<path fill="#C9302C" d="M248.791,77.11c-2.029-1.473-3.196-3.338-3.502-5.594c-0.306-2.255,0.353-4.499,1.972-6.729l0.342-0.472
		c1.077-1.484,2.322-2.604,3.736-3.358c1.413-0.755,2.868-1.092,4.367-1.012c1.497,0.08,2.84,0.552,4.029,1.415
		c1.945,1.412,2.993,3.15,3.141,5.216c0.149,2.064-0.644,4.29-2.377,6.678l-0.772,1.065l-10.138-7.357
		c-1.035,1.502-1.469,3.007-1.303,4.514s0.885,2.723,2.157,3.646c0.904,0.656,1.804,1.026,2.698,1.113
		c0.895,0.086,1.799-0.005,2.71-0.272l0.681,2.352C253.879,79.332,251.298,78.93,248.791,77.11z M258.21,63.463
		c-1.033-0.75-2.173-1.003-3.418-0.761c-1.247,0.243-2.444,0.982-3.595,2.217l7.496,5.441l0.141-0.193
		c0.869-1.354,1.25-2.615,1.143-3.785C259.868,65.212,259.279,64.239,258.21,63.463z"/>
	<path fill="#C9302C" d="M269.894,71.923c2.144-0.57,4.125-0.195,5.941,1.123c3.162,2.296,3.463,5.237,0.899,8.826l-7.178,9.889
		l-2.558-1.857l7.188-9.902c0.773-1.086,1.105-2.063,0.997-2.93c-0.109-0.868-0.676-1.674-1.698-2.416
		c-0.83-0.603-1.72-0.91-2.668-0.923s-1.858,0.215-2.731,0.68l-7.739,10.663l-2.56-1.857l15.42-21.244l2.56,1.857L269.894,71.923z"
		/>
	<path fill="#C9302C" d="M290.352,78.473l-2.63,3.624l2.795,2.028l-1.437,1.978l-2.794-2.028l-6.745,9.292
		c-0.435,0.6-0.637,1.141-0.605,1.621c0.031,0.481,0.346,0.938,0.946,1.373c0.294,0.215,0.74,0.453,1.337,0.718l-1.497,2.063
		c-0.807-0.305-1.527-0.688-2.163-1.15c-1.144-0.83-1.755-1.802-1.834-2.913c-0.079-1.115,0.344-2.307,1.268-3.58l6.735-9.279
		l-2.725-1.978l1.437-1.979l2.724,1.978l2.631-3.623L290.352,78.473z"/>
	<path fill="#C9302C" d="M294.235,103.613c0.503-0.692,0.632-1.418,0.389-2.179s-0.912-1.749-2.007-2.966
		c-1.096-1.218-1.882-2.296-2.361-3.235c-0.479-0.938-0.707-1.809-0.684-2.607c0.023-0.8,0.304-1.567,0.84-2.306
		c0.89-1.226,2.16-1.887,3.814-1.982c1.652-0.095,3.285,0.442,4.899,1.614c1.696,1.23,2.755,2.668,3.175,4.311
		c0.419,1.642,0.135,3.146-0.855,4.51l-2.573-1.867c0.508-0.7,0.649-1.521,0.423-2.459c-0.227-0.939-0.791-1.736-1.695-2.393
		c-0.932-0.676-1.807-1.001-2.627-0.978c-0.82,0.024-1.467,0.364-1.942,1.02c-0.448,0.617-0.543,1.26-0.281,1.928
		c0.261,0.669,0.927,1.608,1.996,2.821c1.07,1.213,1.856,2.305,2.362,3.277c0.505,0.972,0.747,1.876,0.725,2.712
		c-0.022,0.835-0.325,1.653-0.907,2.456c-0.971,1.337-2.282,2.021-3.938,2.051c-1.655,0.031-3.335-0.573-5.041-1.811
		c-1.199-0.871-2.105-1.854-2.719-2.945c-0.615-1.094-0.906-2.21-0.875-3.349s0.368-2.151,1.011-3.036l2.559,1.857
		c-0.577,0.892-0.727,1.82-0.45,2.788c0.275,0.968,0.939,1.833,1.99,2.597c0.968,0.702,1.888,1.07,2.758,1.104
		C293.088,104.578,293.761,104.268,294.235,103.613z"/>
	<path fill="#C9302C" d="M298.467,110.76c0.305-0.419,0.686-0.679,1.146-0.778s0.939,0.031,1.437,0.393
		c0.498,0.361,0.773,0.777,0.824,1.248c0.053,0.473-0.073,0.917-0.378,1.336c-0.304,0.419-0.685,0.672-1.142,0.759
		c-0.457,0.088-0.935-0.05-1.433-0.411s-0.774-0.771-0.829-1.23C298.037,111.617,298.163,111.179,298.467,110.76z M304.252,108.229
		l-2.31-1.676l10.294-14.562l2.684,1.948L304.252,108.229z"/>
</g>
</svg>
