<?xml version="1.0" encoding="utf-8"?>
<!-- Generator: Adobe Illustrator 16.0.0, SVG Export Plug-In . SVG Version: 6.00 Build 0)  -->
<!DOCTYPE svg PUBLIC "-//W3C//DTD SVG 1.1//EN" "http://www.w3.org/Graphics/SVG/1.1/DTD/svg11.dtd">
<svg version="1.1" id="Ebene1" xmlns="http://www.w3.org/2000/svg" xmlns:xlink="http://www.w3.org/1999/xlink" x="0px" y="0px"
	 width="318.333px" height="220.667px" viewBox="0 0 318.333 220.667" enable-background="new 0 0 318.333 220.667"
	 xml:space="preserve">
<polygon fill="#E0E0DA" points="148.606,167.666 146.499,164.381 144.392,161.1 148.288,160.916 152.187,160.732 150.396,164.199 
	"/>
<polygon fill="#E0E0DA" points="161.407,167.084 159.325,163.785 157.241,160.486 161.14,160.33 165.04,160.178 163.224,163.631 "/>
<polygon fill="#E0E0DA" points="174.376,166.918 172.517,163.488 170.659,160.057 174.56,160.162 178.46,160.27 176.419,163.594 "/>
<polygon fill="#E0E0DA" points="187.536,167.08 185.409,163.809 183.282,160.539 187.179,160.332 191.075,160.127 189.306,163.604 
	"/>
<polygon fill="#E0E0DA" points="201.96,165.621 199.462,162.621 196.966,159.625 200.812,158.961 204.655,158.297 203.308,161.959 
	"/>
<polygon fill="#E0E0DA" points="148.606,167.666 146.499,164.381 144.392,161.1 148.288,160.916 152.187,160.732 150.396,164.199 
	"/>
<polygon fill="#E0E0DA" points="161.407,167.084 159.325,163.785 157.241,160.486 161.14,160.33 165.04,160.178 163.224,163.631 "/>
<polygon fill="#E0E0DA" points="174.376,166.918 172.517,163.488 170.659,160.057 174.56,160.162 178.46,160.27 176.419,163.594 "/>
<polygon fill="#E0E0DA" points="187.536,167.08 185.409,163.809 183.282,160.539 187.179,160.332 191.075,160.127 189.306,163.604 
	"/>
<polygon fill="#E0E0DA" points="201.96,165.621 199.462,162.621 196.966,159.625 200.812,158.961 204.655,158.297 203.308,161.959 
	"/>
<polygon fill="#E0E0DA" points="208.663,173.822 209.839,177.543 211.013,181.264 207.202,180.42 203.392,179.576 206.028,176.697 
	"/>
<polygon fill="#E0E0DA" points="194.905,170.988 196.2,174.67 197.493,178.35 193.657,177.629 189.823,176.908 192.364,173.947 "/>
<polygon fill="#E0E0DA" points="181.511,168.85 182.938,172.48 184.364,176.111 180.507,175.533 176.647,174.951 179.079,171.9 "/>
<polygon fill="#E0E0DA" points="169.052,166.711 170.435,170.359 171.815,174.008 167.964,173.381 164.114,172.752 166.583,169.732 
	"/>
<polygon fill="#E0E0DA" points="155.104,164.672 156.544,168.299 157.983,171.922 154.124,171.359 150.263,170.793 152.685,167.73 
	"/>
<path fill="#FFFFFF" d="M155.384,71"/>
<path fill="#5CBFA3" d="M133.509,161.816c0.873,0.105,24.543-1.533,26.389-1.609c9.461-0.396,18.928,0.535,28.4,0.021
	c7.621-0.414,17.92-0.742,24.17-5.783c4.73-3.82,3.486-12.545,4.598-17.869c1.086-5.215,3.322-10.961,2.441-16.566
	c-0.527-3.363-4.49-11.455-7.539-9.033c-4.787,3.797-6.791-0.135-6.791,5.865c0,5.998-30.42,12.912-40.15,10.643
	c-8.658-2.02-13.545-6.375-16.131-9.695c0.182-1.291,0.281-2.607,0.281-3.947c0-15.648-12.686-28.334-28.334-28.334
	s-28.334,12.686-28.334,28.334c0,5.988,1.863,11.539,5.035,16.115c-10.955,7.5-21.043,18.521-32.938,23.184
	c-5.874,2.301-11.487,4.445-16.805,6.176c-5.317,1.727-10.337,3.029-14.998,3.838c-4.661,0.82-8.959,1.076-12.81,0.996
	c-3.843-0.143-7.234-0.633-10.047-1.287c-2.807-0.66-5.055-1.381-6.572-1.945c-1.543-0.572-2.365-0.877-2.365-0.877
	s0.634,1.154,1.877,3.188c1.26,2.033,3.145,4.871,5.704,8.088c1.276,1.625,2.729,3.271,4.344,4.977
	c1.609,1.742,3.396,3.424,5.339,5.074c3.878,3.387,8.41,6.467,13.439,9.002c5.027,2.553,10.551,4.51,16.373,5.836
	c5.824,1.354,11.947,2.096,18.191,2.398c6.315,0.348,12.638,0.326,18.958,0.121c6.543-0.213,13.084-0.623,19.613-1.029
	c10.756-0.67,21.191-3.826,31.953-4.418c10.561-0.58,21.111,1.252,31.66,1.563c6.791,0.201,16.727,2.373,23.373,0.67
	c3.443-0.883,23.037-7.209,23.896-11.447c1.104-5.443-70.744-13.352-77.131-15.803c-1.197-0.459-8.678-5.098-9.668-5.883
	C130.376,161.664,131.948,161.629,133.509,161.816z"/>
<polygon fill="#6AD3B3" points="24.676,167 28.334,158.66 33.728,165.998 "/>
<polygon fill="#6AD3B3" points="34.863,164.943 37.379,156.189 43.701,162.746 "/>
<polygon fill="#6AD3B3" points="54.463,157.814 55.938,148.828 62.984,154.6 "/>
<polygon fill="#6AD3B3" points="64.427,154.234 65.334,145.174 72.729,150.49 "/>
<polygon fill="#6AD3B3" points="73.175,149.48 73.071,140.375 81.011,144.838 "/>
<polygon fill="#6AD3B3" points="81.995,143.566 80.614,134.566 89.101,137.871 "/>
<polygon fill="#6AD3B3" points="89.517,136.922 88.294,127.898 96.722,131.35 "/>
<polygon fill="#6AD3B3" points="44.423,161.146 46.396,152.258 53.109,158.41 "/>
<path fill-rule="evenodd" clip-rule="evenodd" fill="#5A4739" d="M53.389,201.088c-0.053-0.078-0.105-0.154-0.159-0.23
	C53.283,200.934,53.336,201.01,53.389,201.088z"/>
<polygon fill-rule="evenodd" clip-rule="evenodd" fill="#5CBFA3" points="65.551,197.834 66.051,202.834 73.718,205.834 
	79.382,202.717 79.718,194.168 "/>
<g>
	<path fill-rule="evenodd" clip-rule="evenodd" fill="#F1E6D4" d="M109.364,211.229c1.33,0.893,2.023,4.066,1.047,5.258
		c-0.328,0.398-0.992,0.65-1.537,0.725c-3.42,0.453-6.84,0.949-10.275,1.227c-7.482,0.602-14.898-0.459-22.328-1.088
		c-0.584-0.051-1.17-0.104-1.754-0.152c-3.444-0.508-6.897-0.947-10.323-1.547c-2.6-0.455-2.902-0.904-2.913-3.566
		c-0.004-0.816,0.181-1.635,0.28-2.455c5.971,0.742,11.942,1.484,17.913,2.227c0.15,0.031,0.303,0.061,0.455,0.092
		c0.414,0.039,0.832,0.078,1.248,0.115c0.174,0.023,0.35,0.045,0.523,0.066c5.285,0.607,10.574,1.49,15.898,0.943
		C101.544,212.668,105.444,211.859,109.364,211.229z"/>
	<path fill-rule="evenodd" clip-rule="evenodd" fill="#C84A5C" d="M79.474,211.855c0.15,0.031,0.303,0.061,0.455,0.092
		C79.776,211.916,79.624,211.887,79.474,211.855z"/>
	<path fill-rule="evenodd" clip-rule="evenodd" fill="#C9302C" d="M107.519,210.344c-2.25-0.168-4.512-0.174-6.77-0.24
		c-3.584-1.754-7.168-3.506-10.75-5.26c-0.184-0.111-0.367-0.223-0.551-0.334c-2.973-1.285-5.943-2.57-8.916-3.855
		c-1.344-0.453-1.857,0.563-2.473,1.4c0.441,0.223,0.873,0.461,1.322,0.662c-0.449-0.201-0.881-0.439-1.322-0.662
		c-0.824,0.438-1.65,0.873-2.475,1.311c-1.158,0.271-2.311,0.725-3.481,0.775c-2.631,0.115-4.529-1.316-6.122-3.275
		c-0.946-1.166-1.361-1.105-2.04,0.234c-1.36,2.682-2.545,5.418-2.382,8.529c5.971,0.742,11.942,1.484,17.913,2.227
		c0.15,0.031,0.303,0.061,0.455,0.092c0.414,0.039,0.832,0.078,1.248,0.115l0.533,0.053c-0.002,0.004-0.006,0.01-0.01,0.014
		c5.285,0.607,10.574,1.49,15.898,0.943c3.945-0.404,7.846-1.213,11.766-1.844C108.751,210.92,108.151,210.391,107.519,210.344z"/>
</g>
<polyline fill-rule="evenodd" clip-rule="evenodd" fill="#5CBFA3" points="127.644,193.725 132.331,199.773 140.694,195.752 
	140.45,194.277 131.194,185.152 "/>
<g>
	<path fill-rule="evenodd" clip-rule="evenodd" fill="#F1E6D4" d="M164.833,197.414c1.166,0.467,2.219,2.787,1.666,3.861
		c-0.188,0.361-0.656,0.664-1.061,0.809c-2.551,0.91-5.094,1.85-7.686,2.627c-5.643,1.689-11.506,2.09-17.311,2.824
		c-0.457,0.059-0.914,0.113-1.371,0.172c-2.725,0.174-5.447,0.404-8.174,0.506c-2.07,0.078-2.377-0.219-2.82-2.26
		c-0.137-0.627-0.129-1.285-0.188-1.93c4.703-0.41,9.406-0.818,14.109-1.229c0.121,0,0.242-0.002,0.363-0.004
		c0.326-0.037,0.652-0.076,0.977-0.115c0.139-0.012,0.277-0.023,0.414-0.037c4.154-0.398,8.357-0.588,12.354-1.883
		C159.067,199.801,161.929,198.539,164.833,197.414z"/>
	<path fill-rule="evenodd" clip-rule="evenodd" fill="#C84A5C" d="M141.999,202.795c0.121,0,0.242-0.002,0.363-0.004
		C142.241,202.793,142.12,202.795,141.999,202.795z"/>
	<path fill-rule="evenodd" clip-rule="evenodd" fill="#C9302C" d="M163.271,197.039c-1.754,0.238-3.49,0.604-5.232,0.922
		c-3.037-0.756-6.076-1.514-9.111-2.271c-0.16-0.055-0.318-0.109-0.479-0.166c-2.49-0.498-4.982-0.998-7.473-1.498
		c-1.105-0.127-1.332,0.736-1.668,1.48c0.373,0.1,0.746,0.211,1.123,0.293c-0.377-0.082-0.75-0.193-1.123-0.293
		c-0.563,0.471-1.123,0.941-1.684,1.412c-0.846,0.398-1.656,0.936-2.543,1.166c-2.002,0.52-3.693-0.268-5.236-1.51
		c-0.916-0.74-1.225-0.625-1.527,0.514c-0.604,2.279-1.064,4.576-0.428,6.936c4.703-0.41,9.406-0.818,14.109-1.229
		c0.121,0,0.242-0.002,0.363-0.004c0.326-0.037,0.652-0.076,0.977-0.115l0.42-0.047c-0.002,0.002-0.004,0.008-0.006,0.01
		c4.154-0.398,8.357-0.588,12.354-1.883c2.961-0.955,5.822-2.217,8.727-3.342C164.312,197.277,163.767,196.971,163.271,197.039z"/>
</g>
<path fill="#6AD3B3" d="M217.065,136.576c1.086-5.215,3.322-10.961,2.441-16.566c-0.527-3.363-4.49-11.455-7.539-9.033
	c-4.787,3.797-6.791-0.135-6.791,5.865c0,5.998-30.42,12.912-40.15,10.643c-8.658-2.02-13.545-6.375-16.131-9.695
	c0.182-1.291,0.281-2.607,0.281-3.947c0-15.648-12.686-28.334-28.334-28.334s-28.334,12.686-28.334,28.334
	c0,5.988,1.863,11.539,5.035,16.115c-10.955,7.5-21.043,18.521-32.938,23.184c-5.874,2.301-11.487,4.445-16.805,6.176
	c-5.317,1.727-10.337,3.029-14.998,3.838c-4.661,0.82-8.959,1.076-12.81,0.996c-3.843-0.143-7.234-0.633-10.047-1.287
	c-2.807-0.66-5.055-1.381-6.572-1.945c-1.543-0.572-2.365-0.877-2.365-0.877s28.395,34.314,128.146,2.314
	c10.479-1.605,57.73-2.023,57.73-2.023s22.373,0.168,27.166-7.832C216.511,150,217.065,136.576,217.065,136.576z"/>
<circle fill="#FFFFFF" cx="121.385" cy="115" r="24.333"/>
<path fill="#808080" d="M139.384,115c0,9.574-7.76,17.334-17.332,17.334s-17.334-7.76-17.334-17.334
	c0-9.572,7.762-17.332,17.334-17.332V115H139.384z"/>
<g>
	<path fill="#E0E0DA" d="M66.618,184.922c0,0,0.408-0.502,1.125-1.383c0.367-0.432,0.813-0.957,1.326-1.561
		c0.533-0.584,1.105-1.273,1.822-1.943c0.684-0.701,1.497-1.395,2.377-2.102c0.465-0.326,0.932-0.676,1.43-1.008
		c0.529-0.283,1.07-0.576,1.619-0.871c0.6-0.221,1.207-0.443,1.822-0.67c0.305-0.068,0.611-0.137,0.92-0.207l1.025-0.105
		c1.352-0.063,2.729,0.209,3.98,0.75c2.512,1.098,4.459,3.23,5.434,5.561c0.25,0.598,0.43,1.139,0.586,1.801
		c0.061,0.588,0.186,1.131,0.189,1.715c-0.016,1.203-0.227,2.299-0.674,3.203c-0.107,0.227-0.211,0.449-0.313,0.666
		c-0.119,0.207-0.254,0.396-0.383,0.584c-0.25,0.381-0.498,0.727-0.775,1.018c-0.51,0.619-1.02,1.088-1.43,1.482
		c-0.408,0.396-0.77,0.662-0.998,0.863c-0.232,0.195-0.355,0.301-0.355,0.301s0.451-0.467,1.215-1.301
		c0.371-0.426,0.834-0.932,1.275-1.574c0.244-0.305,0.453-0.66,0.66-1.041c0.102-0.189,0.225-0.375,0.326-0.576
		c0.084-0.207,0.17-0.422,0.258-0.639c0.377-0.861,0.496-1.889,0.469-2.902c-0.027-0.523-0.186-1.102-0.275-1.672
		c-0.084-0.254-0.168-0.512-0.254-0.773c-0.092-0.27-0.219-0.529-0.328-0.799c-0.967-2.105-2.76-4.031-5.023-5
		c-1.119-0.494-2.346-0.748-3.545-0.701l-0.867,0.074c-0.311,0.063-0.619,0.123-0.926,0.184c-0.561,0.189-1.115,0.379-1.662,0.564
		c-0.527,0.262-1.047,0.518-1.555,0.77c-0.49,0.291-0.955,0.604-1.418,0.891c-0.887,0.639-1.715,1.271-2.422,1.926
		c-0.73,0.627-1.357,1.256-1.938,1.789c-0.561,0.555-1.049,1.037-1.451,1.436C67.079,184.467,66.618,184.922,66.618,184.922z"/>
</g>
<g>
	<path fill="#E0E0DA" d="M126.267,193.254c0,0-0.395-0.283-1.082-0.779c-0.678-0.51-1.682-1.191-2.807-2.127
		c-0.561-0.467-1.166-0.986-1.764-1.586c-0.611-0.586-1.201-1.275-1.736-2.051c-0.502-0.791-1.006-1.658-1.248-2.646
		c-0.168-0.48-0.199-0.994-0.281-1.5c-0.008-0.51-0.047-1.031,0.025-1.537s0.133-1.018,0.295-1.496l0.209-0.725l0.301-0.695
		c0.408-0.889,1.141-1.85,2.115-2.219c0.973-0.408,1.98-0.307,2.82-0.104c0.857,0.199,1.586,0.561,2.248,0.891
		c1.307,0.697,2.258,1.471,2.934,1.982c0.666,0.529,1.027,0.854,1.027,0.854s-0.414-0.252-1.139-0.693
		c-0.719-0.445-1.771-1.045-3.068-1.635c-0.654-0.273-1.373-0.564-2.152-0.686c-0.771-0.131-1.602-0.125-2.314,0.197l-0.502,0.303
		l-0.43,0.424c-0.148,0.139-0.225,0.334-0.344,0.494l-0.172,0.252l-0.139,0.328l-0.264,0.621l-0.18,0.664
		c-0.148,0.439-0.188,0.895-0.252,1.346c-0.072,0.451-0.037,0.906-0.041,1.357c0.072,0.443,0.086,0.898,0.234,1.324
		c0.205,0.869,0.611,1.674,1.055,2.422c0.479,0.729,0.975,1.426,1.527,2.029c0.533,0.619,1.088,1.168,1.607,1.666
		c1.059,0.992,1.939,1.818,2.557,2.396C125.925,192.908,126.267,193.254,126.267,193.254z"/>
</g>
<line fill="none" stroke="#808080" stroke-width="2" stroke-miterlimit="10" x1="214.397" y1="99.526" x2="233.769" y2="72.813"/>
<g>
	<path fill="#C9302C" d="M213.194,33.091l-2.728-1.856l6.47-9.509l-10.371-7.057l-6.47,9.51l-2.713-1.846L211.379,1.76l2.713,1.846
		l-6.018,8.846l10.371,7.057l6.018-8.846l2.728,1.854L213.194,33.091z"/>
	<path fill="#C9302C" d="M230.777,16.755c0.288-0.424,0.661-0.693,1.12-0.81c0.457-0.115,0.94,0,1.449,0.347
		c0.509,0.346,0.796,0.753,0.861,1.226c0.065,0.471-0.046,0.919-0.334,1.342c-0.289,0.426-0.661,0.688-1.117,0.791
		c-0.457,0.104-0.938-0.018-1.447-0.364c-0.509-0.345-0.797-0.748-0.863-1.207C230.377,17.62,230.488,17.181,230.777,16.755z
		 M220.443,38.021l-2.614-1.778l10.401-15.289l2.614,1.778L220.443,38.021z"/>
	<path fill="#C9302C" d="M237.499,27.261l-1.223,1.979c2.168-0.675,4.193-0.37,6.078,0.911c3.231,2.198,3.621,5.129,1.169,8.794
		l-6.874,10.104l-2.613-1.779l6.882-10.117c0.74-1.107,1.043-2.095,0.908-2.959c-0.136-0.863-0.727-1.651-1.772-2.362
		c-0.848-0.578-1.746-0.857-2.694-0.841c-0.948,0.017-1.852,0.271-2.709,0.763l-7.411,10.894l-2.614-1.778l10.401-15.289
		L237.499,27.261z"/>
	<path fill="#C9302C" d="M256.58,57.336l10.889-9.687l2.614,1.778L255.23,61.689l-2.119-1.443l4.166-14.114l-11.5,9.125l-2.12-1.441
		l5.964-18.307l2.6,1.768l-4.777,13.493l11.347-9.022l2.105,1.433L256.58,57.336z"/>
	<path fill="#C9302C" d="M268.491,71.122c-2.073-1.409-3.296-3.236-3.67-5.483c-0.375-2.244,0.215-4.508,1.765-6.787l0.328-0.481
		c1.031-1.516,2.242-2.673,3.633-3.471c1.389-0.797,2.833-1.178,4.333-1.145c1.499,0.035,2.856,0.466,4.071,1.293
		c1.987,1.351,3.087,3.058,3.298,5.117c0.211,2.058-0.513,4.309-2.172,6.747L279.336,68l-10.357-7.045
		c-0.988,1.532-1.375,3.051-1.164,4.552s0.968,2.694,2.268,3.579c0.923,0.627,1.833,0.971,2.73,1.029
		c0.896,0.06,1.797-0.059,2.701-0.354l0.75,2.33C273.644,73.188,271.052,72.865,268.491,71.122z M277.489,57.194
		c-1.055-0.717-2.202-0.936-3.439-0.655c-1.239,0.281-2.413,1.057-3.525,2.325l7.659,5.211l0.135-0.199
		c0.828-1.379,1.17-2.65,1.027-3.818C279.201,58.893,278.582,57.938,277.489,57.194z"/>
	<path fill="#C9302C" d="M290.844,57.619c0.288-0.423,0.66-0.694,1.12-0.81c0.457-0.115,0.94,0,1.449,0.345
		c0.509,0.347,0.795,0.756,0.861,1.226c0.064,0.473-0.047,0.921-0.335,1.344c-0.288,0.425-0.66,0.688-1.116,0.792
		c-0.457,0.103-0.938-0.02-1.447-0.365s-0.797-0.749-0.863-1.207C290.443,58.484,290.555,58.043,290.844,57.619z M280.509,78.885
		l-2.614-1.777l10.401-15.288l2.615,1.777L280.509,78.885z"/>
	<path fill="#C9302C" d="M296.353,83.732c0.481-0.708,0.587-1.438,0.321-2.189c-0.266-0.754-0.965-1.722-2.096-2.903
		c-1.131-1.185-1.951-2.237-2.458-3.162c-0.508-0.924-0.762-1.786-0.764-2.585c0-0.8,0.256-1.577,0.77-2.331
		c0.853-1.252,2.102-1.951,3.753-2.098c1.648-0.145,3.297,0.342,4.947,1.464c1.732,1.179,2.834,2.582,3.304,4.212
		c0.47,1.629,0.231,3.14-0.718,4.534l-2.628-1.788c0.486-0.715,0.603-1.54,0.348-2.47c-0.255-0.934-0.845-1.712-1.768-2.34
		c-0.951-0.648-1.836-0.946-2.655-0.897c-0.819,0.05-1.456,0.408-1.911,1.077c-0.43,0.63-0.504,1.277-0.222,1.937
		c0.281,0.66,0.975,1.579,2.081,2.759c1.106,1.18,1.926,2.247,2.46,3.204c0.535,0.956,0.804,1.853,0.807,2.688
		s-0.273,1.663-0.831,2.482c-0.93,1.366-2.222,2.09-3.875,2.171c-1.654,0.08-3.351-0.473-5.094-1.658
		c-1.225-0.833-2.16-1.787-2.808-2.86c-0.647-1.073-0.973-2.181-0.976-3.32c-0.004-1.139,0.303-2.161,0.918-3.065l2.614,1.778
		c-0.55,0.909-0.671,1.842-0.366,2.801c0.305,0.959,0.995,1.803,2.069,2.534c0.989,0.673,1.918,1.012,2.79,1.02
		C295.235,84.731,295.897,84.4,296.353,83.732z"/>
	<path fill="#C9302C" d="M300.799,90.746c0.291-0.428,0.664-0.698,1.121-0.813c0.457-0.114,0.939,0.002,1.448,0.349
		c0.509,0.345,0.795,0.754,0.862,1.223c0.066,0.47-0.045,0.918-0.336,1.346c-0.292,0.429-0.665,0.693-1.119,0.794
		c-0.455,0.102-0.936-0.021-1.445-0.367c-0.508-0.347-0.798-0.747-0.866-1.204C300.396,91.616,300.509,91.174,300.799,90.746z
		 M306.505,88.042l-2.36-1.606l9.846-14.867l2.741,1.864L306.505,88.042z"/>
</g>
</svg>
