<?xml version="1.0" encoding="utf-8"?>
<!-- Generator: Adobe Illustrator 16.0.0, SVG Export Plug-In . SVG Version: 6.00 Build 0)  -->
<!DOCTYPE svg PUBLIC "-//W3C//DTD SVG 1.1//EN" "http://www.w3.org/Graphics/SVG/1.1/DTD/svg11.dtd">
<svg version="1.1" id="Ebene1" xmlns="http://www.w3.org/2000/svg" xmlns:xlink="http://www.w3.org/1999/xlink" x="0px" y="0px"
	 width="333.5px" height="241px" viewBox="0 0 333.5 241" enable-background="new 0 0 333.5 241" xml:space="preserve">
<polygon fill="#E0E0DA" points="149.607,188.48 147.5,185.195 145.392,181.914 149.289,181.73 153.187,181.547 151.396,185.014 "/>
<polygon fill="#E0E0DA" points="162.408,187.898 160.326,184.6 158.242,181.301 162.14,181.145 166.041,180.992 164.224,184.445 "/>
<polygon fill="#E0E0DA" points="175.376,187.732 173.517,184.303 171.66,180.871 175.56,180.977 179.46,181.084 177.419,184.408 "/>
<polygon fill="#E0E0DA" points="188.537,187.895 186.41,184.623 184.283,181.354 188.179,181.146 192.076,180.941 190.306,184.418 
	"/>
<polygon fill="#E0E0DA" points="202.96,186.436 200.462,183.436 197.966,180.439 201.812,179.775 205.656,179.111 204.308,182.773 
	"/>
<polygon fill="#E0E0DA" points="149.607,188.48 147.5,185.195 145.392,181.914 149.289,181.73 153.187,181.547 151.396,185.014 "/>
<polygon fill="#E0E0DA" points="162.408,187.898 160.326,184.6 158.242,181.301 162.14,181.145 166.041,180.992 164.224,184.445 "/>
<polygon fill="#E0E0DA" points="175.376,187.732 173.517,184.303 171.66,180.871 175.56,180.977 179.46,181.084 177.419,184.408 "/>
<polygon fill="#E0E0DA" points="188.537,187.895 186.41,184.623 184.283,181.354 188.179,181.146 192.076,180.941 190.306,184.418 
	"/>
<polygon fill="#E0E0DA" points="202.96,186.436 200.462,183.436 197.966,180.439 201.812,179.775 205.656,179.111 204.308,182.773 
	"/>
<polygon fill="#E0E0DA" points="209.664,194.637 210.839,198.357 212.013,202.078 208.203,201.234 204.392,200.391 207.029,197.512 
	"/>
<polygon fill="#E0E0DA" points="195.906,191.803 197.201,195.484 198.494,199.164 194.658,198.443 190.824,197.723 193.365,194.762 
	"/>
<polygon fill="#E0E0DA" points="182.511,189.664 183.939,193.295 185.365,196.926 181.507,196.348 177.648,195.766 180.08,192.715 
	"/>
<polygon fill="#E0E0DA" points="170.052,187.525 171.435,191.174 172.816,194.822 168.964,194.195 165.115,193.566 167.583,190.547 
	"/>
<polygon fill="#E0E0DA" points="156.105,185.486 157.544,189.113 158.984,192.736 155.125,192.174 151.263,191.607 153.685,188.545 
	"/>
<path fill="#FFFFFF" d="M156.384,91.814"/>
<path fill="#5CBFA3" d="M134.509,182.631c0.873,0.105,24.543-1.533,26.389-1.609c9.461-0.396,18.928,0.535,28.4,0.021
	c7.621-0.414,17.92-0.742,24.17-5.783c4.73-3.82,3.486-12.545,4.598-17.869c1.086-5.215,3.322-10.961,2.441-16.566
	c-0.527-3.363-4.49-11.455-7.539-9.033c-4.787,3.797-6.791-0.135-6.791,5.865c0,5.998-30.42,12.912-40.15,10.643
	c-8.658-2.02-13.545-6.375-16.131-9.695c0.182-1.291,0.281-2.607,0.281-3.947c0-15.648-12.686-28.334-28.334-28.334
	s-28.334,12.686-28.334,28.334c0,5.988,1.863,11.539,5.035,16.115c-10.955,7.5-21.043,18.521-32.938,23.184
	c-5.874,2.301-11.487,4.445-16.805,6.176c-5.317,1.727-10.337,3.029-14.998,3.838c-4.661,0.82-8.959,1.076-12.81,0.996
	c-3.843-0.143-7.234-0.633-10.047-1.287c-2.807-0.66-5.055-1.381-6.572-1.945c-1.543-0.572-2.365-0.877-2.365-0.877
	s0.634,1.154,1.877,3.188c1.26,2.033,3.145,4.871,5.704,8.088c1.276,1.625,2.729,3.271,4.344,4.977
	c1.609,1.742,3.396,3.424,5.339,5.074c3.878,3.387,8.41,6.467,13.439,9.002c5.027,2.553,10.551,4.51,16.373,5.836
	c5.824,1.354,11.947,2.096,18.191,2.398c6.315,0.348,12.638,0.326,18.958,0.121c6.543-0.213,13.084-0.623,19.613-1.029
	c10.756-0.67,21.191-3.826,31.953-4.418c10.561-0.58,21.111,1.252,31.66,1.563c6.791,0.201,16.727,2.373,23.373,0.67
	c3.443-0.883,23.037-7.209,23.896-11.447c1.104-5.443-70.744-13.352-77.131-15.803c-1.197-0.459-8.678-5.098-9.668-5.883
	C131.376,182.479,132.949,182.443,134.509,182.631z"/>
<polygon fill="#6AD3B3" points="25.676,187.814 29.334,179.475 34.728,186.813 "/>
<polygon fill="#6AD3B3" points="35.864,185.758 38.379,177.004 44.702,183.561 "/>
<polygon fill="#6AD3B3" points="55.463,178.629 56.938,169.643 63.985,175.414 "/>
<polygon fill="#6AD3B3" points="65.427,175.049 66.334,165.988 73.73,171.305 "/>
<polygon fill="#6AD3B3" points="74.175,170.295 74.072,161.189 82.011,165.652 "/>
<polygon fill="#6AD3B3" points="82.996,164.381 81.615,155.381 90.101,158.686 "/>
<polygon fill="#6AD3B3" points="90.517,157.736 89.294,148.713 97.722,152.164 "/>
<polygon fill="#6AD3B3" points="45.423,181.961 47.397,173.072 54.11,179.225 "/>
<path fill-rule="evenodd" clip-rule="evenodd" fill="#5A4739" d="M54.389,221.902c-0.053-0.078-0.105-0.154-0.159-0.23
	C54.284,221.748,54.336,221.824,54.389,221.902z"/>
<polygon fill-rule="evenodd" clip-rule="evenodd" fill="#5CBFA3" points="66.551,218.648 67.051,223.648 74.718,226.648 
	80.382,223.531 80.718,214.982 "/>
<g>
	<path fill-rule="evenodd" clip-rule="evenodd" fill="#F1E6D4" d="M110.365,232.043c1.33,0.893,2.023,4.066,1.047,5.258
		c-0.328,0.398-0.992,0.65-1.537,0.725c-3.42,0.453-6.84,0.949-10.275,1.227c-7.482,0.602-14.898-0.459-22.328-1.088
		c-0.584-0.051-1.17-0.104-1.754-0.152c-3.444-0.508-6.897-0.947-10.323-1.547c-2.6-0.455-2.902-0.904-2.913-3.566
		c-0.004-0.816,0.181-1.635,0.28-2.455c5.971,0.742,11.942,1.484,17.913,2.227c0.15,0.031,0.303,0.061,0.455,0.092
		c0.414,0.039,0.832,0.078,1.248,0.115c0.174,0.023,0.35,0.045,0.523,0.066c5.285,0.607,10.574,1.49,15.898,0.943
		C102.544,233.482,106.445,232.674,110.365,232.043z"/>
	<path fill-rule="evenodd" clip-rule="evenodd" fill="#C84A5C" d="M80.474,232.67c0.15,0.031,0.303,0.061,0.455,0.092
		C80.777,232.73,80.625,232.701,80.474,232.67z"/>
	<path fill-rule="evenodd" clip-rule="evenodd" fill="#C9302C" d="M108.519,231.158c-2.25-0.168-4.512-0.174-6.77-0.24
		c-3.584-1.754-7.168-3.506-10.75-5.26c-0.184-0.111-0.367-0.223-0.551-0.334c-2.973-1.285-5.943-2.57-8.916-3.855
		c-1.344-0.453-1.857,0.563-2.473,1.4c0.441,0.223,0.873,0.461,1.322,0.662c-0.449-0.201-0.881-0.439-1.322-0.662
		c-0.824,0.438-1.65,0.873-2.475,1.311c-1.158,0.271-2.311,0.725-3.481,0.775c-2.631,0.115-4.529-1.316-6.122-3.275
		c-0.946-1.166-1.361-1.105-2.04,0.234c-1.36,2.682-2.545,5.418-2.382,8.529c5.971,0.742,11.942,1.484,17.913,2.227
		c0.15,0.031,0.303,0.061,0.455,0.092c0.414,0.039,0.832,0.078,1.248,0.115l0.533,0.053c-0.002,0.004-0.006,0.01-0.01,0.014
		c5.285,0.607,10.574,1.49,15.898,0.943c3.945-0.404,7.846-1.213,11.766-1.844C109.751,231.734,109.152,231.205,108.519,231.158z"/>
</g>
<polyline fill-rule="evenodd" clip-rule="evenodd" fill="#5CBFA3" points="128.644,214.539 133.332,220.588 141.695,216.566 
	141.451,215.092 132.195,205.967 "/>
<g>
	<path fill-rule="evenodd" clip-rule="evenodd" fill="#F1E6D4" d="M165.833,218.229c1.166,0.467,2.219,2.787,1.666,3.861
		c-0.188,0.361-0.656,0.664-1.061,0.809c-2.551,0.91-5.094,1.85-7.686,2.627c-5.643,1.689-11.506,2.09-17.311,2.824
		c-0.457,0.059-0.914,0.113-1.371,0.172c-2.725,0.174-5.447,0.404-8.174,0.506c-2.07,0.078-2.377-0.219-2.82-2.26
		c-0.137-0.627-0.129-1.285-0.188-1.93c4.703-0.41,9.406-0.818,14.109-1.229c0.121,0,0.242-0.002,0.363-0.004
		c0.326-0.037,0.652-0.076,0.977-0.115c0.139-0.012,0.277-0.023,0.414-0.037c4.154-0.398,8.357-0.588,12.354-1.883
		C160.068,220.615,162.929,219.354,165.833,218.229z"/>
	<path fill-rule="evenodd" clip-rule="evenodd" fill="#C84A5C" d="M143,223.609c0.121,0,0.242-0.002,0.363-0.004
		C143.242,223.607,143.121,223.609,143,223.609z"/>
	<path fill-rule="evenodd" clip-rule="evenodd" fill="#C9302C" d="M164.271,217.854c-1.754,0.238-3.49,0.604-5.232,0.922
		c-3.037-0.756-6.076-1.514-9.111-2.271c-0.16-0.055-0.318-0.109-0.479-0.166c-2.49-0.498-4.982-0.998-7.473-1.498
		c-1.105-0.127-1.332,0.736-1.668,1.48c0.373,0.1,0.746,0.211,1.123,0.293c-0.377-0.082-0.75-0.193-1.123-0.293
		c-0.563,0.471-1.123,0.941-1.684,1.412c-0.846,0.398-1.656,0.936-2.543,1.166c-2.002,0.52-3.693-0.268-5.236-1.51
		c-0.916-0.74-1.225-0.625-1.527,0.514c-0.604,2.279-1.064,4.576-0.428,6.936c4.703-0.41,9.406-0.818,14.109-1.229
		c0.121,0,0.242-0.002,0.363-0.004c0.326-0.037,0.652-0.076,0.977-0.115l0.42-0.047c-0.002,0.002-0.004,0.008-0.006,0.01
		c4.154-0.398,8.357-0.588,12.354-1.883c2.961-0.955,5.822-2.217,8.727-3.342C165.312,218.092,164.767,217.785,164.271,217.854z"/>
</g>
<path fill="#6AD3B3" d="M218.066,157.391c1.086-5.215,3.322-10.961,2.441-16.566c-0.527-3.363-4.49-11.455-7.539-9.033
	c-4.787,3.797-6.791-0.135-6.791,5.865c0,5.998-30.42,12.912-40.15,10.643c-8.658-2.02-13.545-6.375-16.131-9.695
	c0.182-1.291,0.281-2.607,0.281-3.947c0-15.648-12.686-28.334-28.334-28.334s-28.334,12.686-28.334,28.334
	c0,5.988,1.863,11.539,5.035,16.115c-10.955,7.5-21.043,18.521-32.938,23.184c-5.874,2.301-11.487,4.445-16.805,6.176
	c-5.317,1.727-10.337,3.029-14.998,3.838c-4.661,0.82-8.959,1.076-12.81,0.996c-3.843-0.143-7.234-0.633-10.047-1.287
	c-2.807-0.66-5.055-1.381-6.572-1.945c-1.543-0.572-2.365-0.877-2.365-0.877s28.395,34.314,128.146,2.314
	c10.479-1.605,57.73-2.023,57.73-2.023s22.373,0.168,27.166-7.832C217.511,170.814,218.066,157.391,218.066,157.391z"/>
<circle fill="#FFFFFF" cx="122.385" cy="135.814" r="24.333"/>
<path fill="#808080" d="M140.384,135.814c0,9.574-7.76,17.334-17.332,17.334s-17.334-7.76-17.334-17.334
	c0-9.572,7.762-17.332,17.334-17.332v17.332H140.384z"/>
<g>
	<path fill="#E0E0DA" d="M67.618,205.736c0,0,0.408-0.502,1.125-1.383c0.367-0.432,0.813-0.957,1.326-1.561
		c0.533-0.584,1.105-1.273,1.822-1.943c0.684-0.701,1.497-1.395,2.377-2.102c0.465-0.326,0.932-0.676,1.43-1.008
		c0.529-0.283,1.07-0.576,1.619-0.871c0.6-0.221,1.207-0.443,1.822-0.67c0.305-0.068,0.611-0.137,0.92-0.207l1.025-0.105
		c1.352-0.063,2.729,0.209,3.98,0.75c2.512,1.098,4.459,3.23,5.434,5.561c0.25,0.598,0.43,1.139,0.586,1.801
		c0.061,0.588,0.186,1.131,0.189,1.715c-0.016,1.203-0.227,2.299-0.674,3.203c-0.107,0.227-0.211,0.449-0.313,0.666
		c-0.119,0.207-0.254,0.396-0.383,0.584c-0.25,0.381-0.498,0.727-0.775,1.018c-0.51,0.619-1.02,1.088-1.43,1.482
		c-0.408,0.396-0.77,0.662-0.998,0.863c-0.232,0.195-0.355,0.301-0.355,0.301s0.451-0.467,1.215-1.301
		c0.371-0.426,0.834-0.932,1.275-1.574c0.244-0.305,0.453-0.66,0.66-1.041c0.102-0.189,0.225-0.375,0.326-0.576
		c0.084-0.207,0.17-0.422,0.258-0.639c0.377-0.861,0.496-1.889,0.469-2.902c-0.027-0.523-0.186-1.102-0.275-1.672
		c-0.084-0.254-0.168-0.512-0.254-0.773c-0.092-0.27-0.219-0.529-0.328-0.799c-0.967-2.105-2.76-4.031-5.023-5
		c-1.119-0.494-2.346-0.748-3.545-0.701l-0.867,0.074c-0.311,0.063-0.619,0.123-0.926,0.184c-0.561,0.189-1.115,0.379-1.662,0.564
		c-0.527,0.262-1.047,0.518-1.555,0.77c-0.49,0.291-0.955,0.604-1.418,0.891c-0.887,0.639-1.715,1.271-2.422,1.926
		c-0.73,0.627-1.357,1.256-1.938,1.789c-0.561,0.555-1.049,1.037-1.451,1.436C68.079,205.281,67.618,205.736,67.618,205.736z"/>
</g>
<g>
	<path fill="#E0E0DA" d="M127.267,214.068c0,0-0.395-0.283-1.082-0.779c-0.678-0.51-1.682-1.191-2.807-2.127
		c-0.561-0.467-1.166-0.986-1.764-1.586c-0.611-0.586-1.201-1.275-1.736-2.051c-0.502-0.791-1.006-1.658-1.248-2.646
		c-0.168-0.48-0.199-0.994-0.281-1.5c-0.008-0.51-0.047-1.031,0.025-1.537s0.133-1.018,0.295-1.496l0.209-0.725l0.301-0.695
		c0.408-0.889,1.141-1.85,2.115-2.219c0.973-0.408,1.98-0.307,2.82-0.104c0.857,0.199,1.586,0.561,2.248,0.891
		c1.307,0.697,2.258,1.471,2.934,1.982c0.666,0.529,1.027,0.854,1.027,0.854s-0.414-0.252-1.139-0.693
		c-0.719-0.445-1.771-1.045-3.068-1.635c-0.654-0.273-1.373-0.564-2.152-0.686c-0.771-0.131-1.602-0.125-2.314,0.197l-0.502,0.303
		l-0.43,0.424c-0.148,0.139-0.225,0.334-0.344,0.494l-0.172,0.252l-0.139,0.328l-0.264,0.621l-0.18,0.664
		c-0.148,0.439-0.188,0.895-0.252,1.346c-0.072,0.451-0.037,0.906-0.041,1.357c0.072,0.443,0.086,0.898,0.234,1.324
		c0.205,0.869,0.611,1.674,1.055,2.422c0.479,0.729,0.975,1.426,1.527,2.029c0.533,0.619,1.088,1.168,1.607,1.666
		c1.059,0.992,1.939,1.818,2.557,2.396C126.925,213.723,127.267,214.068,127.267,214.068z"/>
</g>
<line fill="none" stroke="#808080" stroke-width="2" stroke-miterlimit="10" x1="215.398" y1="120.341" x2="234.769" y2="93.627"/>
<g>
	<path fill="#C9302C" d="M222.303,20.401l-8.539-5.98l-5.653,3.991l-2.772-1.941L227.396,1.54l2.352,1.646l-6.477,25.842
		l-2.758-1.931L222.303,20.401z M216.115,12.793l6.929,4.852l3.204-11.964L216.115,12.793z"/>
	<path fill="#C9302C" d="M235.854,35.609c-1.837,0.479-3.732,0.035-5.682-1.33c-1.615-1.132-2.516-2.461-2.704-3.99
		c-0.188-1.529,0.358-3.216,1.636-5.062l6.902-9.855l2.589,1.815l-6.853,9.784c-1.607,2.296-1.478,4.097,0.389,5.403
		c1.979,1.385,3.811,1.569,5.496,0.554l7.716-11.017l2.59,1.813l-10.607,15.146l-2.464-1.727L235.854,35.609z"/>
	<path fill="#C9302C" d="M242.533,42.519l9.205-13.145l-2.394-1.677l1.402-2.002l2.394,1.677l1.088-1.553
		c1.137-1.625,2.45-2.575,3.938-2.854c1.489-0.278,3.027,0.137,4.613,1.248c0.597,0.418,1.135,0.912,1.612,1.481l-1.602,1.989
		c-0.379-0.392-0.817-0.76-1.312-1.106c-0.84-0.587-1.661-0.797-2.462-0.625c-0.802,0.171-1.523,0.716-2.167,1.633l-1.121,1.602
		l3.234,2.264l-1.402,2.002l-3.233-2.264l-9.205,13.145L242.533,42.519z"/>
	<path fill="#C9302C" d="M264.398,58.249c-2.053-1.438-3.251-3.283-3.594-5.532c-0.344-2.25,0.275-4.505,1.856-6.764l0.334-0.477
		c1.052-1.501,2.278-2.643,3.679-3.422c1.4-0.778,2.85-1.139,4.349-1.084c1.498,0.054,2.85,0.503,4.053,1.347
		c1.969,1.379,3.045,3.099,3.229,5.162c0.184,2.061-0.571,4.302-2.264,6.718l-0.755,1.078l-10.261-7.187
		c-1.009,1.52-1.417,3.031-1.227,4.535c0.192,1.504,0.932,2.707,2.22,3.61c0.915,0.64,1.82,0.995,2.716,1.066
		c0.896,0.071,1.799-0.035,2.706-0.317l0.719,2.339C269.523,60.385,266.937,60.027,264.398,58.249z M273.585,44.445
		c-1.045-0.733-2.188-0.967-3.43-0.703c-1.242,0.264-2.428,1.023-3.557,2.277l7.587,5.314l0.137-0.197
		c0.847-1.367,1.206-2.635,1.078-3.804C275.273,46.166,274.668,45.203,273.585,44.445z"/>
	<path fill="#C9302C" d="M286.933,45.049c0.293-0.418,0.67-0.684,1.13-0.794c0.459-0.109,0.94,0.014,1.444,0.365
		c0.504,0.354,0.785,0.767,0.844,1.237c0.059,0.474-0.059,0.92-0.353,1.339c-0.295,0.421-0.67,0.679-1.128,0.776
		c-0.457,0.096-0.938-0.031-1.441-0.384c-0.504-0.354-0.787-0.76-0.847-1.219C286.521,45.909,286.638,45.47,286.933,45.049z
		 M276.311,66.174l-2.59-1.813l10.607-15.146l2.59,1.813L276.311,66.174z"/>
	<path fill="#C9302C" d="M293.512,55.646l-1.25,1.963c2.177-0.646,4.199-0.315,6.065,0.992c3.201,2.242,3.55,5.179,1.048,8.81
		l-7.009,10.009l-2.59-1.814l7.02-10.022c0.755-1.098,1.07-2.08,0.948-2.945c-0.125-0.866-0.705-1.662-1.74-2.387
		c-0.84-0.589-1.734-0.882-2.682-0.879c-0.948,0.004-1.855,0.246-2.719,0.727l-7.559,10.792l-2.589-1.813l10.607-15.146
		L293.512,55.646z"/>
	<path fill="#C9302C" d="M302.362,84.836c-2.054-1.438-3.251-3.281-3.595-5.533c-0.344-2.249,0.275-4.505,1.857-6.762l0.334-0.477
		c1.052-1.503,2.278-2.645,3.68-3.422c1.399-0.777,2.85-1.141,4.349-1.085c1.498,0.054,2.85,0.504,4.053,1.347
		c1.969,1.379,3.045,3.101,3.229,5.162c0.183,2.062-0.571,4.301-2.264,6.717l-0.755,1.078l-10.261-7.186
		c-1.009,1.52-1.417,3.031-1.226,4.536c0.192,1.503,0.932,2.708,2.22,3.608c0.914,0.641,1.82,0.996,2.715,1.068
		c0.896,0.07,1.798-0.035,2.706-0.319l0.718,2.34C307.486,86.972,304.899,86.613,302.362,84.836z M311.549,71.032
		c-1.046-0.732-2.189-0.965-3.43-0.702c-1.242,0.264-2.427,1.022-3.556,2.277l7.587,5.313l0.137-0.195
		c0.847-1.369,1.206-2.637,1.078-3.806C313.236,72.753,312.631,71.79,311.549,71.032z"/>
	<path fill="#C9302C" d="M324.518,77.36l-1.249,1.962c2.176-0.646,4.198-0.313,6.064,0.992c3.201,2.243,3.551,5.179,1.049,8.811
		l-7.009,10.009l-2.59-1.813l7.02-10.023c0.755-1.098,1.07-2.08,0.948-2.945c-0.125-0.866-0.704-1.661-1.741-2.387
		c-0.839-0.59-1.734-0.882-2.682-0.878c-0.949,0.004-1.856,0.246-2.72,0.726l-7.559,10.793l-2.589-1.814l10.607-15.146
		L324.518,77.36z"/>
	<path fill="#C9302C" d="M209.067,70.356l14.274-20.38l6.664,4.666c2.211,1.549,3.554,3.171,4.029,4.865
		c0.474,1.697,0.084,3.44-1.17,5.231c-0.667,0.952-1.528,1.604-2.582,1.96c-1.055,0.353-2.189,0.403-3.403,0.151
		c0.885,1.078,1.345,2.273,1.38,3.584c0.034,1.312-0.366,2.564-1.203,3.759c-1.281,1.829-2.88,2.852-4.797,3.067
		c-1.917,0.214-3.958-0.437-6.123-1.952L209.067,70.356z M219.941,60.552l4.06,2.842c1.176,0.824,2.323,1.188,3.439,1.092
		c1.118-0.096,2.03-0.649,2.737-1.658c0.786-1.123,1.031-2.167,0.735-3.136c-0.296-0.966-1.112-1.917-2.447-2.852l-3.975-2.784
		L219.941,60.552z M218.431,62.706l-5.136,7.336l4.437,3.106c1.251,0.877,2.465,1.243,3.642,1.102
		c1.177-0.143,2.165-0.782,2.962-1.922c1.719-2.453,1.244-4.615-1.425-6.485L218.431,62.706z"/>
	<path fill="#C9302C" d="M229.323,84.543l-2.59-1.814l15.059-21.501l2.59,1.813L229.323,84.543z"/>
	<path fill="#C9302C" d="M246.902,68.29c0.294-0.418,0.67-0.685,1.13-0.794c0.458-0.109,0.941,0.014,1.444,0.365
		c0.504,0.354,0.786,0.767,0.844,1.237c0.059,0.474-0.06,0.919-0.353,1.339c-0.295,0.421-0.671,0.679-1.127,0.775
		c-0.458,0.097-0.938-0.031-1.442-0.384c-0.504-0.354-0.787-0.759-0.846-1.219C246.49,69.15,246.607,68.711,246.902,68.29z
		 M236.28,89.415l-2.59-1.814l10.607-15.146l2.59,1.815L236.28,89.415z"/>
	<path fill="#C9302C" d="M247.783,94.738c0.924,0.647,1.927,0.933,3.01,0.856c1.082-0.077,1.956-0.51,2.619-1.297l2.45,1.716
		c-0.655,0.836-1.532,1.452-2.631,1.851c-1.1,0.398-2.273,0.509-3.518,0.332c-1.246-0.178-2.383-0.626-3.409-1.345
		c-2.062-1.444-3.221-3.281-3.475-5.511s0.456-4.538,2.129-6.928l0.304-0.434c1.032-1.475,2.222-2.598,3.566-3.364
		c1.346-0.77,2.746-1.116,4.204-1.041c1.457,0.074,2.875,0.594,4.257,1.562c1.698,1.188,2.754,2.687,3.167,4.491
		c0.412,1.805,0.086,3.545-0.976,5.222l-2.45-1.715c0.611-1.033,0.804-2.098,0.578-3.195c-0.226-1.097-0.829-1.989-1.809-2.675
		c-1.316-0.921-2.667-1.162-4.053-0.721c-1.387,0.441-2.708,1.557-3.963,3.349l-0.343,0.489c-1.223,1.745-1.805,3.342-1.746,4.787
		C245.752,92.612,246.448,93.804,247.783,94.738z"/>
	<path fill="#C9302C" d="M264.569,98.773l-2.81,0.558l-3.726,5.319l-2.59-1.814l15.059-21.502l2.589,1.814l-9.108,13.006
		l2.553-0.696l8.208-1.68l3.149,2.205l-10.325,2.2l0.403,13.426l-3.038-2.126L264.569,98.773z"/>
	<path fill="#C9302C" d="M271.162,111.883c0.297-0.424,0.674-0.689,1.132-0.798c0.458-0.106,0.939,0.016,1.443,0.368
		c0.504,0.354,0.785,0.765,0.846,1.235c0.059,0.47-0.059,0.918-0.356,1.342c-0.297,0.424-0.673,0.683-1.129,0.778
		c-0.456,0.095-0.935-0.035-1.439-0.388c-0.504-0.353-0.788-0.759-0.849-1.216C270.747,112.747,270.865,112.307,271.162,111.883z
		 M276.903,109.256l-2.337-1.638l10.047-14.731l2.716,1.9L276.903,109.256z"/>
</g>
</svg>
