<?xml version="1.0" encoding="utf-8"?>
<!-- Generator: Adobe Illustrator 16.0.0, SVG Export Plug-In . SVG Version: 6.00 Build 0)  -->
<!DOCTYPE svg PUBLIC "-//W3C//DTD SVG 1.1//EN" "http://www.w3.org/Graphics/SVG/1.1/DTD/svg11.dtd">
<svg version="1.1" id="Ebene1" xmlns="http://www.w3.org/2000/svg" xmlns:xlink="http://www.w3.org/1999/xlink" x="0px" y="0px"
	 width="313px" height="211.333px" viewBox="0 0 313 211.333" enable-background="new 0 0 313 211.333" xml:space="preserve">
<polygon fill="#E0E0DA" points="148.773,157.666 146.666,154.381 144.559,151.1 148.455,150.916 152.354,150.732 150.563,154.199 
	"/>
<polygon fill="#E0E0DA" points="161.574,157.084 159.492,153.785 157.408,150.486 161.307,150.33 165.207,150.178 163.391,153.631 
	"/>
<polygon fill="#E0E0DA" points="174.543,156.918 172.684,153.488 170.826,150.057 174.727,150.162 178.627,150.27 176.586,153.594 
	"/>
<polygon fill="#E0E0DA" points="187.703,157.08 185.576,153.809 183.449,150.539 187.346,150.332 191.242,150.127 189.473,153.604 
	"/>
<polygon fill="#E0E0DA" points="202.127,155.621 199.629,152.621 197.133,149.625 200.979,148.961 204.822,148.297 203.475,151.959 
	"/>
<polygon fill="#E0E0DA" points="148.773,157.666 146.666,154.381 144.559,151.1 148.455,150.916 152.354,150.732 150.563,154.199 
	"/>
<polygon fill="#E0E0DA" points="161.574,157.084 159.492,153.785 157.408,150.486 161.307,150.33 165.207,150.178 163.391,153.631 
	"/>
<polygon fill="#E0E0DA" points="174.543,156.918 172.684,153.488 170.826,150.057 174.727,150.162 178.627,150.27 176.586,153.594 
	"/>
<polygon fill="#E0E0DA" points="187.703,157.08 185.576,153.809 183.449,150.539 187.346,150.332 191.242,150.127 189.473,153.604 
	"/>
<polygon fill="#E0E0DA" points="202.127,155.621 199.629,152.621 197.133,149.625 200.979,148.961 204.822,148.297 203.475,151.959 
	"/>
<polygon fill="#E0E0DA" points="208.83,163.822 210.006,167.543 211.18,171.264 207.369,170.42 203.559,169.576 206.195,166.697 "/>
<polygon fill="#E0E0DA" points="195.072,160.988 196.367,164.67 197.66,168.35 193.824,167.629 189.99,166.908 192.531,163.947 "/>
<polygon fill="#E0E0DA" points="181.678,158.85 183.105,162.48 184.531,166.111 180.674,165.533 176.814,164.951 179.246,161.9 "/>
<polygon fill="#E0E0DA" points="169.219,156.711 170.602,160.359 171.982,164.008 168.131,163.381 164.281,162.752 166.75,159.732 
	"/>
<polygon fill="#E0E0DA" points="155.271,154.672 156.711,158.299 158.15,161.922 154.291,161.359 150.43,160.793 152.852,157.73 "/>
<path fill="#FFFFFF" d="M155.551,61"/>
<path fill="#5CBFA3" d="M133.676,151.816c0.873,0.105,24.543-1.533,26.389-1.609c9.461-0.396,18.928,0.535,28.4,0.021
	c7.621-0.414,17.92-0.742,24.17-5.783c4.73-3.82,3.486-12.545,4.598-17.869c1.086-5.215,3.322-10.961,2.441-16.566
	c-0.527-3.363-4.49-11.455-7.539-9.033c-4.787,3.797-6.791-0.135-6.791,5.865c0,5.998-30.42,12.912-40.15,10.643
	c-8.658-2.02-13.545-6.375-16.131-9.695c0.182-1.291,0.281-2.607,0.281-3.947c0-15.648-12.686-28.334-28.334-28.334
	s-28.334,12.686-28.334,28.334c0,5.988,1.863,11.539,5.035,16.115c-10.955,7.5-21.043,18.521-32.938,23.184
	c-5.874,2.301-11.487,4.445-16.805,6.176c-5.317,1.727-10.337,3.029-14.998,3.838c-4.661,0.82-8.959,1.076-12.81,0.996
	c-3.843-0.143-7.234-0.633-10.047-1.287c-2.807-0.66-5.055-1.381-6.572-1.945c-1.543-0.572-2.365-0.877-2.365-0.877
	s0.634,1.154,1.877,3.188c1.26,2.033,3.145,4.871,5.704,8.088c1.276,1.625,2.729,3.271,4.344,4.977
	c1.609,1.742,3.396,3.424,5.339,5.074c3.878,3.387,8.41,6.467,13.439,9.002c5.027,2.553,10.551,4.51,16.373,5.836
	c5.824,1.354,11.947,2.096,18.191,2.398c6.315,0.348,12.638,0.326,18.958,0.121c6.543-0.213,13.084-0.623,19.613-1.029
	c10.756-0.67,21.191-3.826,31.953-4.418c10.561-0.58,21.111,1.252,31.66,1.563c6.791,0.201,16.727,2.373,23.373,0.67
	c3.443-0.883,23.037-7.209,23.896-11.447c1.104-5.443-70.744-13.352-77.131-15.803c-1.197-0.459-8.678-5.098-9.668-5.883
	C130.543,151.664,132.115,151.629,133.676,151.816z"/>
<polygon fill="#6AD3B3" points="24.843,157 28.501,148.66 33.895,155.998 "/>
<polygon fill="#6AD3B3" points="35.03,154.943 37.546,146.189 43.868,152.746 "/>
<polygon fill="#6AD3B3" points="54.63,147.814 56.104,138.828 63.151,144.6 "/>
<polygon fill="#6AD3B3" points="64.594,144.234 65.501,135.174 72.896,140.49 "/>
<polygon fill="#6AD3B3" points="73.342,139.48 73.238,130.375 81.178,134.838 "/>
<polygon fill="#6AD3B3" points="82.162,133.566 80.781,124.566 89.268,127.871 "/>
<polygon fill="#6AD3B3" points="89.684,126.922 88.461,117.898 96.889,121.35 "/>
<polygon fill="#6AD3B3" points="44.59,151.146 46.563,142.258 53.276,148.41 "/>
<path fill-rule="evenodd" clip-rule="evenodd" fill="#5A4739" d="M53.556,191.088c-0.053-0.078-0.105-0.154-0.159-0.23
	C53.45,190.934,53.503,191.01,53.556,191.088z"/>
<polygon fill-rule="evenodd" clip-rule="evenodd" fill="#5CBFA3" points="65.718,187.834 66.218,192.834 73.885,195.834 
	79.549,192.717 79.885,184.168 "/>
<g>
	<path fill-rule="evenodd" clip-rule="evenodd" fill="#F1E6D4" d="M109.531,201.229c1.33,0.893,2.023,4.066,1.047,5.258
		c-0.328,0.398-0.992,0.65-1.537,0.725c-3.42,0.453-6.84,0.949-10.275,1.227c-7.482,0.602-14.898-0.459-22.328-1.088
		c-0.584-0.051-1.17-0.104-1.754-0.152c-3.444-0.508-6.897-0.947-10.323-1.547c-2.6-0.455-2.902-0.904-2.913-3.566
		c-0.004-0.816,0.181-1.635,0.28-2.455c5.971,0.742,11.942,1.484,17.913,2.227c0.15,0.031,0.303,0.061,0.455,0.092
		c0.414,0.039,0.832,0.078,1.248,0.115c0.174,0.023,0.35,0.045,0.523,0.066c5.285,0.607,10.574,1.49,15.898,0.943
		C101.711,202.668,105.611,201.859,109.531,201.229z"/>
	<path fill-rule="evenodd" clip-rule="evenodd" fill="#C84A5C" d="M79.641,201.855c0.15,0.031,0.303,0.061,0.455,0.092
		C79.943,201.916,79.791,201.887,79.641,201.855z"/>
	<path fill-rule="evenodd" clip-rule="evenodd" fill="#C9302C" d="M107.686,200.344c-2.25-0.168-4.512-0.174-6.77-0.24
		c-3.584-1.754-7.168-3.506-10.75-5.26c-0.184-0.111-0.367-0.223-0.551-0.334c-2.973-1.285-5.943-2.57-8.916-3.855
		c-1.344-0.453-1.857,0.563-2.473,1.4c0.441,0.223,0.873,0.461,1.322,0.662c-0.449-0.201-0.881-0.439-1.322-0.662
		c-0.824,0.438-1.65,0.873-2.475,1.311c-1.158,0.271-2.311,0.725-3.481,0.775c-2.631,0.115-4.529-1.316-6.122-3.275
		c-0.946-1.166-1.361-1.105-2.04,0.234c-1.36,2.682-2.545,5.418-2.382,8.529c5.971,0.742,11.942,1.484,17.913,2.227
		c0.15,0.031,0.303,0.061,0.455,0.092c0.414,0.039,0.832,0.078,1.248,0.115l0.533,0.053c-0.002,0.004-0.006,0.01-0.01,0.014
		c5.285,0.607,10.574,1.49,15.898,0.943c3.945-0.404,7.846-1.213,11.766-1.844C108.918,200.92,108.318,200.391,107.686,200.344z"/>
</g>
<polyline fill-rule="evenodd" clip-rule="evenodd" fill="#5CBFA3" points="127.811,183.725 132.498,189.773 140.861,185.752 
	140.617,184.277 131.361,175.152 "/>
<g>
	<path fill-rule="evenodd" clip-rule="evenodd" fill="#F1E6D4" d="M165,187.414c1.166,0.467,2.219,2.787,1.666,3.861
		c-0.188,0.361-0.656,0.664-1.061,0.809c-2.551,0.91-5.094,1.85-7.686,2.627c-5.643,1.689-11.506,2.09-17.311,2.824
		c-0.457,0.059-0.914,0.113-1.371,0.172c-2.725,0.174-5.447,0.404-8.174,0.506c-2.07,0.078-2.377-0.219-2.82-2.26
		c-0.137-0.627-0.129-1.285-0.188-1.93c4.703-0.41,9.406-0.818,14.109-1.229c0.121,0,0.242-0.002,0.363-0.004
		c0.326-0.037,0.652-0.076,0.977-0.115c0.139-0.012,0.277-0.023,0.414-0.037c4.154-0.398,8.357-0.588,12.354-1.883
		C159.234,189.801,162.096,188.539,165,187.414z"/>
	<path fill-rule="evenodd" clip-rule="evenodd" fill="#C84A5C" d="M142.166,192.795c0.121,0,0.242-0.002,0.363-0.004
		C142.408,192.793,142.287,192.795,142.166,192.795z"/>
	<path fill-rule="evenodd" clip-rule="evenodd" fill="#C9302C" d="M163.438,187.039c-1.754,0.238-3.49,0.604-5.232,0.922
		c-3.037-0.756-6.076-1.514-9.111-2.271c-0.16-0.055-0.318-0.109-0.479-0.166c-2.49-0.498-4.982-0.998-7.473-1.498
		c-1.105-0.127-1.332,0.736-1.668,1.48c0.373,0.1,0.746,0.211,1.123,0.293c-0.377-0.082-0.75-0.193-1.123-0.293
		c-0.563,0.471-1.123,0.941-1.684,1.412c-0.846,0.398-1.656,0.936-2.543,1.166c-2.002,0.52-3.693-0.268-5.236-1.51
		c-0.916-0.74-1.225-0.625-1.527,0.514c-0.604,2.279-1.064,4.576-0.428,6.936c4.703-0.41,9.406-0.818,14.109-1.229
		c0.121,0,0.242-0.002,0.363-0.004c0.326-0.037,0.652-0.076,0.977-0.115l0.42-0.047c-0.002,0.002-0.004,0.008-0.006,0.01
		c4.154-0.398,8.357-0.588,12.354-1.883c2.961-0.955,5.822-2.217,8.727-3.342C164.479,187.277,163.934,186.971,163.438,187.039z"/>
</g>
<path fill="#6AD3B3" d="M217.232,126.576c1.086-5.215,3.322-10.961,2.441-16.566c-0.527-3.363-4.49-11.455-7.539-9.033
	c-4.787,3.797-6.791-0.135-6.791,5.865c0,5.998-30.42,12.912-40.15,10.643c-8.658-2.02-13.545-6.375-16.131-9.695
	c0.182-1.291,0.281-2.607,0.281-3.947c0-15.648-12.686-28.334-28.334-28.334s-28.334,12.686-28.334,28.334
	c0,5.988,1.863,11.539,5.035,16.115c-10.955,7.5-21.043,18.521-32.938,23.184c-5.874,2.301-11.487,4.445-16.805,6.176
	c-5.317,1.727-10.337,3.029-14.998,3.838c-4.661,0.82-8.959,1.076-12.81,0.996c-3.843-0.143-7.234-0.633-10.047-1.287
	c-2.807-0.66-5.055-1.381-6.572-1.945c-1.543-0.572-2.365-0.877-2.365-0.877s28.395,34.314,128.146,2.314
	c10.479-1.605,57.73-2.023,57.73-2.023s22.373,0.168,27.166-7.832C216.678,140,217.232,126.576,217.232,126.576z"/>
<circle fill="#FFFFFF" cx="121.552" cy="105" r="24.333"/>
<path fill="#808080" d="M139.551,105c0,9.574-7.76,17.334-17.332,17.334s-17.334-7.76-17.334-17.334
	c0-9.572,7.762-17.332,17.334-17.332V105H139.551z"/>
<g>
	<path fill="#E0E0DA" d="M66.785,174.922c0,0,0.408-0.502,1.125-1.383c0.367-0.432,0.813-0.957,1.326-1.561
		c0.533-0.584,1.105-1.273,1.822-1.943c0.684-0.701,1.497-1.395,2.377-2.102c0.465-0.326,0.932-0.676,1.43-1.008
		c0.529-0.283,1.07-0.576,1.619-0.871c0.6-0.221,1.207-0.443,1.822-0.67c0.305-0.068,0.611-0.137,0.92-0.207l1.025-0.105
		c1.352-0.063,2.729,0.209,3.98,0.75c2.512,1.098,4.459,3.23,5.434,5.561c0.25,0.598,0.43,1.139,0.586,1.801
		c0.061,0.588,0.186,1.131,0.189,1.715c-0.016,1.203-0.227,2.299-0.674,3.203c-0.107,0.227-0.211,0.449-0.313,0.666
		c-0.119,0.207-0.254,0.396-0.383,0.584c-0.25,0.381-0.498,0.727-0.775,1.018c-0.51,0.619-1.02,1.088-1.43,1.482
		c-0.408,0.396-0.77,0.662-0.998,0.863c-0.232,0.195-0.355,0.301-0.355,0.301s0.451-0.467,1.215-1.301
		c0.371-0.426,0.834-0.932,1.275-1.574c0.244-0.305,0.453-0.66,0.66-1.041c0.102-0.189,0.225-0.375,0.326-0.576
		c0.084-0.207,0.17-0.422,0.258-0.639c0.377-0.861,0.496-1.889,0.469-2.902c-0.027-0.523-0.186-1.102-0.275-1.672
		c-0.084-0.254-0.168-0.512-0.254-0.773c-0.092-0.27-0.219-0.529-0.328-0.799c-0.967-2.105-2.76-4.031-5.023-5
		c-1.119-0.494-2.346-0.748-3.545-0.701l-0.867,0.074c-0.311,0.063-0.619,0.123-0.926,0.184c-0.561,0.189-1.115,0.379-1.662,0.564
		c-0.527,0.262-1.047,0.518-1.555,0.77c-0.49,0.291-0.955,0.604-1.418,0.891c-0.887,0.639-1.715,1.271-2.422,1.926
		c-0.73,0.627-1.357,1.256-1.938,1.789c-0.561,0.555-1.049,1.037-1.451,1.436C67.246,174.467,66.785,174.922,66.785,174.922z"/>
</g>
<g>
	<path fill="#E0E0DA" d="M126.434,183.254c0,0-0.395-0.283-1.082-0.779c-0.678-0.51-1.682-1.191-2.807-2.127
		c-0.561-0.467-1.166-0.986-1.764-1.586c-0.611-0.586-1.201-1.275-1.736-2.051c-0.502-0.791-1.006-1.658-1.248-2.646
		c-0.168-0.48-0.199-0.994-0.281-1.5c-0.008-0.51-0.047-1.031,0.025-1.537s0.133-1.018,0.295-1.496l0.209-0.725l0.301-0.695
		c0.408-0.889,1.141-1.85,2.115-2.219c0.973-0.408,1.98-0.307,2.82-0.104c0.857,0.199,1.586,0.561,2.248,0.891
		c1.307,0.697,2.258,1.471,2.934,1.982c0.666,0.529,1.027,0.854,1.027,0.854s-0.414-0.252-1.139-0.693
		c-0.719-0.445-1.771-1.045-3.068-1.635c-0.654-0.273-1.373-0.564-2.152-0.686c-0.771-0.131-1.602-0.125-2.314,0.197l-0.502,0.303
		l-0.43,0.424c-0.148,0.139-0.225,0.334-0.344,0.494l-0.172,0.252l-0.139,0.328l-0.264,0.621l-0.18,0.664
		c-0.148,0.439-0.188,0.895-0.252,1.346c-0.072,0.451-0.037,0.906-0.041,1.357c0.072,0.443,0.086,0.898,0.234,1.324
		c0.205,0.869,0.611,1.674,1.055,2.422c0.479,0.729,0.975,1.426,1.527,2.029c0.533,0.619,1.088,1.168,1.607,1.666
		c1.059,0.992,1.939,1.818,2.557,2.396C126.092,182.908,126.434,183.254,126.434,183.254z"/>
</g>
<line fill="none" stroke="#808080" stroke-width="2" stroke-miterlimit="10" x1="214.564" y1="89.526" x2="233.936" y2="62.813"/>
<g>
	<path fill="#C9302C" d="M252.276,22.092l-8.392-5.541l-15.378,23.287l-3.424-2.261l15.378-23.288l-8.372-5.529l1.859-2.815
		l20.187,13.331L252.276,22.092z"/>
	<path fill="#C9302C" d="M256.476,23.062c0.354-0.538,0.817-0.883,1.394-1.037c0.573-0.154,1.182-0.018,1.827,0.41
		c0.646,0.426,1.012,0.934,1.103,1.526c0.09,0.591-0.042,1.155-0.397,1.694c-0.355,0.538-0.819,0.875-1.391,1.013
		c-0.571,0.137-1.18-0.007-1.824-0.434c-0.646-0.426-1.015-0.926-1.105-1.502C255.987,24.156,256.119,23.6,256.476,23.062z
		 M243.854,49.974l-3.317-2.19l12.81-19.397l3.317,2.189L243.854,49.974z"/>
	<path fill="#C9302C" d="M271.809,54.814c-1.949,2.953-4.196,4.885-6.737,5.798c-2.543,0.913-4.968,0.607-7.272-0.915
		c-2.356-1.556-3.716-3.526-4.079-5.912l-6.168,9.34l-3.316-2.189L261.97,34.08l3.029,2.001l-1.26,2.258
		c2.456-0.782,4.886-0.38,7.286,1.207c2.333,1.54,3.595,3.635,3.792,6.288c0.195,2.653-0.74,5.545-2.808,8.676L271.809,54.814z
		 M268.74,52.248c1.445-2.187,2.118-4.221,2.024-6.104c-0.096-1.883-0.957-3.362-2.582-4.434c-2.009-1.326-4.102-1.43-6.281-0.313
		l-6.122,9.27c-0.175,2.424,0.758,4.311,2.801,5.66c1.59,1.05,3.27,1.253,5.041,0.612S267.1,54.735,268.74,52.248z"/>
	<path fill="#C9302C" d="M292.408,68.417c-1.95,2.952-4.195,4.886-6.737,5.798c-2.544,0.913-4.968,0.607-7.274-0.916
		c-2.355-1.556-3.714-3.525-4.077-5.911l-6.168,9.341l-3.317-2.19l17.734-26.857l3.03,2.001l-1.26,2.258
		c2.456-0.782,4.886-0.379,7.288,1.207c2.33,1.54,3.594,3.635,3.79,6.288c0.195,2.653-0.74,5.545-2.809,8.675L292.408,68.417z
		 M289.34,65.852c1.444-2.188,2.119-4.222,2.023-6.105c-0.096-1.882-0.958-3.361-2.582-4.434c-2.009-1.326-4.102-1.43-6.281-0.313
		l-6.122,9.27c-0.175,2.425,0.759,4.311,2.803,5.661c1.589,1.049,3.269,1.253,5.04,0.612C285.992,69.9,287.698,68.338,289.34,65.852
		z"/>
	<path fill="#C9302C" d="M291.83,79.236c0.357-0.543,0.823-0.89,1.396-1.042c0.57-0.151,1.18-0.013,1.825,0.413
		s1.014,0.934,1.105,1.522s-0.04,1.156-0.399,1.698c-0.359,0.543-0.824,0.881-1.394,1.018c-0.57,0.134-1.177-0.011-1.822-0.437
		c-0.646-0.427-1.015-0.927-1.109-1.5C291.339,80.336,291.472,79.779,291.83,79.236z M298.955,75.737l-2.994-1.977l12.118-18.86
		l3.479,2.297L298.955,75.737z"/>
</g>
</svg>
