<?xml version="1.0" encoding="utf-8"?>
<!-- Generator: Adobe Illustrator 16.0.0, SVG Export Plug-In . SVG Version: 6.00 Build 0)  -->
<!DOCTYPE svg PUBLIC "-//W3C//DTD SVG 1.1//EN" "http://www.w3.org/Graphics/SVG/1.1/DTD/svg11.dtd">
<svg version="1.1" id="Ebene1" xmlns="http://www.w3.org/2000/svg" xmlns:xlink="http://www.w3.org/1999/xlink" x="0px" y="0px"
	 width="276px" height="187.333px" viewBox="0 0 276 187.333" enable-background="new 0 0 276 187.333" xml:space="preserve">
<polygon fill="#E0E0DA" points="150.273,135.332 148.166,132.047 146.059,128.766 149.955,128.582 153.854,128.398 152.063,131.865 
	"/>
<polygon fill="#E0E0DA" points="163.074,134.75 160.992,131.451 158.908,128.152 162.807,127.996 166.707,127.844 164.891,131.297 
	"/>
<polygon fill="#E0E0DA" points="176.043,134.584 174.184,131.154 172.326,127.723 176.227,127.828 180.127,127.936 178.086,131.26 
	"/>
<polygon fill="#E0E0DA" points="189.203,134.746 187.076,131.475 184.949,128.205 188.846,127.998 192.742,127.793 190.973,131.27 
	"/>
<polygon fill="#E0E0DA" points="203.627,133.287 201.129,130.287 198.633,127.291 202.479,126.627 206.322,125.963 204.975,129.625 
	"/>
<polygon fill="#E0E0DA" points="150.273,135.332 148.166,132.047 146.059,128.766 149.955,128.582 153.854,128.398 152.063,131.865 
	"/>
<polygon fill="#E0E0DA" points="163.074,134.75 160.992,131.451 158.908,128.152 162.807,127.996 166.707,127.844 164.891,131.297 
	"/>
<polygon fill="#E0E0DA" points="176.043,134.584 174.184,131.154 172.326,127.723 176.227,127.828 180.127,127.936 178.086,131.26 
	"/>
<polygon fill="#E0E0DA" points="189.203,134.746 187.076,131.475 184.949,128.205 188.846,127.998 192.742,127.793 190.973,131.27 
	"/>
<polygon fill="#E0E0DA" points="203.627,133.287 201.129,130.287 198.633,127.291 202.479,126.627 206.322,125.963 204.975,129.625 
	"/>
<polygon fill="#E0E0DA" points="210.33,141.488 211.506,145.209 212.68,148.93 208.869,148.086 205.059,147.242 207.695,144.363 "/>
<polygon fill="#E0E0DA" points="196.572,138.654 197.867,142.336 199.16,146.016 195.324,145.295 191.49,144.574 194.031,141.613 
	"/>
<polygon fill="#E0E0DA" points="183.178,136.516 184.605,140.146 186.031,143.777 182.174,143.199 178.314,142.617 180.746,139.566 
	"/>
<polygon fill="#E0E0DA" points="170.719,134.377 172.102,138.025 173.482,141.674 169.631,141.047 165.781,140.418 168.25,137.398 
	"/>
<polygon fill="#E0E0DA" points="156.771,132.338 158.211,135.965 159.65,139.588 155.791,139.025 151.93,138.459 154.352,135.396 
	"/>
<path fill="#FFFFFF" d="M157.051,38.666"/>
<path fill="#5CBFA3" d="M135.176,129.482c0.873,0.105,24.543-1.533,26.389-1.609c9.461-0.396,18.928,0.535,28.4,0.021
	c7.621-0.414,17.92-0.742,24.17-5.783c4.73-3.82,3.486-12.545,4.598-17.869c1.086-5.215,3.322-10.961,2.441-16.566
	c-0.527-3.363-4.49-11.455-7.539-9.033c-4.787,3.797-6.791-0.135-6.791,5.865c0,5.998-30.42,12.912-40.15,10.643
	c-8.658-2.02-13.545-6.375-16.131-9.695c0.182-1.291,0.281-2.607,0.281-3.947c0-15.648-12.686-28.334-28.334-28.334
	S94.176,65.859,94.176,81.508c0,5.988,1.863,11.539,5.035,16.115c-10.955,7.5-21.043,18.521-32.938,23.184
	c-5.874,2.301-11.487,4.445-16.805,6.176c-5.317,1.727-10.337,3.029-14.998,3.838c-4.661,0.82-8.959,1.076-12.81,0.996
	c-3.843-0.143-7.234-0.633-10.047-1.287c-2.807-0.66-5.055-1.381-6.572-1.945c-1.543-0.572-2.365-0.877-2.365-0.877
	s0.634,1.154,1.877,3.188c1.26,2.033,3.145,4.871,5.704,8.088c1.276,1.625,2.729,3.271,4.344,4.977
	c1.609,1.742,3.396,3.424,5.339,5.074c3.878,3.387,8.41,6.467,13.439,9.002c5.027,2.553,10.551,4.51,16.373,5.836
	c5.824,1.354,11.947,2.096,18.191,2.398c6.315,0.348,12.638,0.326,18.958,0.121c6.543-0.213,13.084-0.623,19.613-1.029
	c10.756-0.67,21.191-3.826,31.953-4.418c10.561-0.58,21.111,1.252,31.66,1.563c6.791,0.201,16.727,2.373,23.373,0.67
	c3.443-0.883,23.037-7.209,23.896-11.447c1.104-5.443-70.744-13.352-77.131-15.803c-1.197-0.459-8.678-5.098-9.668-5.883
	C132.043,129.33,133.615,129.295,135.176,129.482z"/>
<polygon fill="#6AD3B3" points="26.343,134.666 30.001,126.326 35.395,133.664 "/>
<polygon fill="#6AD3B3" points="36.53,132.609 39.046,123.855 45.368,130.412 "/>
<polygon fill="#6AD3B3" points="56.13,125.48 57.604,116.494 64.651,122.266 "/>
<polygon fill="#6AD3B3" points="66.094,121.9 67.001,112.84 74.396,118.156 "/>
<polygon fill="#6AD3B3" points="74.842,117.146 74.738,108.041 82.678,112.504 "/>
<polygon fill="#6AD3B3" points="83.662,111.232 82.281,102.232 90.768,105.537 "/>
<polygon fill="#6AD3B3" points="91.184,104.588 89.961,95.564 98.389,99.016 "/>
<polygon fill="#6AD3B3" points="46.09,128.813 48.063,119.924 54.776,126.076 "/>
<path fill-rule="evenodd" clip-rule="evenodd" fill="#5A4739" d="M55.056,168.754c-0.053-0.078-0.105-0.154-0.159-0.23
	C54.95,168.6,55.003,168.676,55.056,168.754z"/>
<polygon fill-rule="evenodd" clip-rule="evenodd" fill="#5CBFA3" points="67.218,165.5 67.718,170.5 75.385,173.5 81.049,170.383 
	81.385,161.834 "/>
<g>
	<path fill-rule="evenodd" clip-rule="evenodd" fill="#F1E6D4" d="M111.031,178.895c1.33,0.893,2.023,4.066,1.047,5.258
		c-0.328,0.398-0.992,0.65-1.537,0.725c-3.42,0.453-6.84,0.949-10.275,1.227c-7.482,0.602-14.898-0.459-22.328-1.088
		c-0.584-0.051-1.17-0.104-1.754-0.152c-3.444-0.508-6.897-0.947-10.323-1.547c-2.6-0.455-2.902-0.904-2.913-3.566
		c-0.004-0.816,0.181-1.635,0.28-2.455c5.971,0.742,11.942,1.484,17.913,2.227c0.15,0.031,0.303,0.061,0.455,0.092
		c0.414,0.039,0.832,0.078,1.248,0.115c0.174,0.023,0.35,0.045,0.523,0.066c5.285,0.607,10.574,1.49,15.898,0.943
		C103.211,180.334,107.111,179.525,111.031,178.895z"/>
	<path fill-rule="evenodd" clip-rule="evenodd" fill="#C84A5C" d="M81.141,179.521c0.15,0.031,0.303,0.061,0.455,0.092
		C81.443,179.582,81.291,179.553,81.141,179.521z"/>
	<path fill-rule="evenodd" clip-rule="evenodd" fill="#C9302C" d="M109.186,178.01c-2.25-0.168-4.512-0.174-6.77-0.24
		c-3.584-1.754-7.168-3.506-10.75-5.26c-0.184-0.111-0.367-0.223-0.551-0.334c-2.973-1.285-5.943-2.57-8.916-3.855
		c-1.344-0.453-1.857,0.563-2.473,1.4c0.441,0.223,0.873,0.461,1.322,0.662c-0.449-0.201-0.881-0.439-1.322-0.662
		c-0.824,0.438-1.65,0.873-2.475,1.311c-1.158,0.271-2.311,0.725-3.481,0.775c-2.631,0.115-4.529-1.316-6.122-3.275
		c-0.946-1.166-1.361-1.105-2.04,0.234c-1.36,2.682-2.545,5.418-2.382,8.529c5.971,0.742,11.942,1.484,17.913,2.227
		c0.15,0.031,0.303,0.061,0.455,0.092c0.414,0.039,0.832,0.078,1.248,0.115l0.533,0.053c-0.002,0.004-0.006,0.01-0.01,0.014
		c5.285,0.607,10.574,1.49,15.898,0.943c3.945-0.404,7.846-1.213,11.766-1.844C110.418,178.586,109.818,178.057,109.186,178.01z"/>
</g>
<polyline fill-rule="evenodd" clip-rule="evenodd" fill="#5CBFA3" points="129.311,161.391 133.998,167.439 142.361,163.418 
	142.117,161.943 132.861,152.818 "/>
<g>
	<path fill-rule="evenodd" clip-rule="evenodd" fill="#F1E6D4" d="M166.5,165.08c1.166,0.467,2.219,2.787,1.666,3.861
		c-0.188,0.361-0.656,0.664-1.061,0.809c-2.551,0.91-5.094,1.85-7.686,2.627c-5.643,1.689-11.506,2.09-17.311,2.824
		c-0.457,0.059-0.914,0.113-1.371,0.172c-2.725,0.174-5.447,0.404-8.174,0.506c-2.07,0.078-2.377-0.219-2.82-2.26
		c-0.137-0.627-0.129-1.285-0.188-1.93c4.703-0.41,9.406-0.818,14.109-1.229c0.121,0,0.242-0.002,0.363-0.004
		c0.326-0.037,0.652-0.076,0.977-0.115c0.139-0.012,0.277-0.023,0.414-0.037c4.154-0.398,8.357-0.588,12.354-1.883
		C160.734,167.467,163.596,166.205,166.5,165.08z"/>
	<path fill-rule="evenodd" clip-rule="evenodd" fill="#C84A5C" d="M143.666,170.461c0.121,0,0.242-0.002,0.363-0.004
		C143.908,170.459,143.787,170.461,143.666,170.461z"/>
	<path fill-rule="evenodd" clip-rule="evenodd" fill="#C9302C" d="M164.938,164.705c-1.754,0.238-3.49,0.604-5.232,0.922
		c-3.037-0.756-6.076-1.514-9.111-2.271c-0.16-0.055-0.318-0.109-0.479-0.166c-2.49-0.498-4.982-0.998-7.473-1.498
		c-1.105-0.127-1.332,0.736-1.668,1.48c0.373,0.1,0.746,0.211,1.123,0.293c-0.377-0.082-0.75-0.193-1.123-0.293
		c-0.563,0.471-1.123,0.941-1.684,1.412c-0.846,0.398-1.656,0.936-2.543,1.166c-2.002,0.52-3.693-0.268-5.236-1.51
		c-0.916-0.74-1.225-0.625-1.527,0.514c-0.604,2.279-1.064,4.576-0.428,6.936c4.703-0.41,9.406-0.818,14.109-1.229
		c0.121,0,0.242-0.002,0.363-0.004c0.326-0.037,0.652-0.076,0.977-0.115l0.42-0.047c-0.002,0.002-0.004,0.008-0.006,0.01
		c4.154-0.398,8.357-0.588,12.354-1.883c2.961-0.955,5.822-2.217,8.727-3.342C165.979,164.943,165.434,164.637,164.938,164.705z"/>
</g>
<path fill="#6AD3B3" d="M218.732,104.242c1.086-5.215,3.322-10.961,2.441-16.566c-0.527-3.363-4.49-11.455-7.539-9.033
	c-4.787,3.797-6.791-0.135-6.791,5.865c0,5.998-30.42,12.912-40.15,10.643c-8.658-2.02-13.545-6.375-16.131-9.695
	c0.182-1.291,0.281-2.607,0.281-3.947c0-15.648-12.686-28.334-28.334-28.334S94.176,65.859,94.176,81.508
	c0,5.988,1.863,11.539,5.035,16.115c-10.955,7.5-21.043,18.521-32.938,23.184c-5.874,2.301-11.487,4.445-16.805,6.176
	c-5.317,1.727-10.337,3.029-14.998,3.838c-4.661,0.82-8.959,1.076-12.81,0.996c-3.843-0.143-7.234-0.633-10.047-1.287
	c-2.807-0.66-5.055-1.381-6.572-1.945c-1.543-0.572-2.365-0.877-2.365-0.877s28.395,34.314,128.146,2.314
	c10.479-1.605,57.73-2.023,57.73-2.023s22.373,0.168,27.166-7.832C218.178,117.666,218.732,104.242,218.732,104.242z"/>
<circle fill="#FFFFFF" cx="123.052" cy="82.666" r="24.333"/>
<path fill="#808080" d="M141.051,82.666c0,9.574-7.76,17.334-17.332,17.334s-17.334-7.76-17.334-17.334
	c0-9.572,7.762-17.332,17.334-17.332v17.332H141.051z"/>
<g>
	<path fill="#E0E0DA" d="M68.285,152.588c0,0,0.408-0.502,1.125-1.383c0.367-0.432,0.813-0.957,1.326-1.561
		c0.533-0.584,1.105-1.273,1.822-1.943c0.684-0.701,1.497-1.395,2.377-2.102c0.465-0.326,0.932-0.676,1.43-1.008
		c0.529-0.283,1.07-0.576,1.619-0.871c0.6-0.221,1.207-0.443,1.822-0.67c0.305-0.068,0.611-0.137,0.92-0.207l1.025-0.105
		c1.352-0.063,2.729,0.209,3.98,0.75c2.512,1.098,4.459,3.23,5.434,5.561c0.25,0.598,0.43,1.139,0.586,1.801
		c0.061,0.588,0.186,1.131,0.189,1.715c-0.016,1.203-0.227,2.299-0.674,3.203c-0.107,0.227-0.211,0.449-0.313,0.666
		c-0.119,0.207-0.254,0.396-0.383,0.584c-0.25,0.381-0.498,0.727-0.775,1.018c-0.51,0.619-1.02,1.088-1.43,1.482
		c-0.408,0.396-0.77,0.662-0.998,0.863c-0.232,0.195-0.355,0.301-0.355,0.301s0.451-0.467,1.215-1.301
		c0.371-0.426,0.834-0.932,1.275-1.574c0.244-0.305,0.453-0.66,0.66-1.041c0.102-0.189,0.225-0.375,0.326-0.576
		c0.084-0.207,0.17-0.422,0.258-0.639c0.377-0.861,0.496-1.889,0.469-2.902c-0.027-0.523-0.186-1.102-0.275-1.672
		c-0.084-0.254-0.168-0.512-0.254-0.773c-0.092-0.27-0.219-0.529-0.328-0.799c-0.967-2.105-2.76-4.031-5.023-5
		c-1.119-0.494-2.346-0.748-3.545-0.701l-0.867,0.074c-0.311,0.063-0.619,0.123-0.926,0.184c-0.561,0.189-1.115,0.379-1.662,0.564
		c-0.527,0.262-1.047,0.518-1.555,0.77c-0.49,0.291-0.955,0.604-1.418,0.891c-0.887,0.639-1.715,1.271-2.422,1.926
		c-0.73,0.627-1.357,1.256-1.938,1.789c-0.561,0.555-1.049,1.037-1.451,1.436C68.746,152.133,68.285,152.588,68.285,152.588z"/>
</g>
<g>
	<path fill="#E0E0DA" d="M127.934,160.92c0,0-0.395-0.283-1.082-0.779c-0.678-0.51-1.682-1.191-2.807-2.127
		c-0.561-0.467-1.166-0.986-1.764-1.586c-0.611-0.586-1.201-1.275-1.736-2.051c-0.502-0.791-1.006-1.658-1.248-2.646
		c-0.168-0.48-0.199-0.994-0.281-1.5c-0.008-0.51-0.047-1.031,0.025-1.537s0.133-1.018,0.295-1.496l0.209-0.725l0.301-0.695
		c0.408-0.889,1.141-1.85,2.115-2.219c0.973-0.408,1.98-0.307,2.82-0.104c0.857,0.199,1.586,0.561,2.248,0.891
		c1.307,0.697,2.258,1.471,2.934,1.982c0.666,0.529,1.027,0.854,1.027,0.854s-0.414-0.252-1.139-0.693
		c-0.719-0.445-1.771-1.045-3.068-1.635c-0.654-0.273-1.373-0.564-2.152-0.686c-0.771-0.131-1.602-0.125-2.314,0.197l-0.502,0.303
		l-0.43,0.424c-0.148,0.139-0.225,0.334-0.344,0.494l-0.172,0.252l-0.139,0.328l-0.264,0.621l-0.18,0.664
		c-0.148,0.439-0.188,0.895-0.252,1.346c-0.072,0.451-0.037,0.906-0.041,1.357c0.072,0.443,0.086,0.898,0.234,1.324
		c0.205,0.869,0.611,1.674,1.055,2.422c0.479,0.729,0.975,1.426,1.527,2.029c0.533,0.619,1.088,1.168,1.607,1.666
		c1.059,0.992,1.939,1.818,2.557,2.396C127.592,160.574,127.934,160.92,127.934,160.92z"/>
</g>
<line fill="none" stroke="#808080" stroke-width="2" stroke-miterlimit="10" x1="216.064" y1="67.192" x2="235.436" y2="40.479"/>
<g>
	<path fill="#C9302C" d="M246.571,33.579l-2.772-1.788l6.234-9.666l-10.541-6.798l-6.234,9.666l-2.757-1.778l13.486-20.911
		l2.758,1.778l-5.799,8.99l10.541,6.799l5.798-8.99l2.772,1.788L246.571,33.579z"/>
	<path fill="#C9302C" d="M263.748,16.817c0.277-0.431,0.644-0.71,1.099-0.837c0.454-0.127,0.94-0.023,1.457,0.31
		c0.517,0.334,0.813,0.735,0.891,1.204c0.076,0.47-0.024,0.921-0.302,1.352c-0.278,0.432-0.645,0.703-1.097,0.818
		c-0.454,0.113-0.938,0.004-1.456-0.329c-0.517-0.333-0.814-0.729-0.893-1.186C263.369,17.692,263.47,17.249,263.748,16.817z
		 M253.939,38.332l-2.657-1.715l10.022-15.539l2.657,1.714L253.939,38.332z"/>
	<path fill="#C9302C" d="M259.349,39.908c0.28-0.435,0.646-0.715,1.101-0.84c0.453-0.125,0.939-0.021,1.456,0.313
		c0.518,0.334,0.814,0.734,0.892,1.202c0.078,0.468-0.023,0.919-0.304,1.354c-0.28,0.436-0.646,0.709-1.099,0.821
		s-0.936,0.002-1.453-0.332c-0.517-0.333-0.815-0.728-0.895-1.183C258.967,40.788,259.068,40.344,259.349,39.908z M264.985,37.064
		l-2.398-1.547l9.478-15.105l2.787,1.798L264.985,37.064z"/>
</g>
</svg>
